<svg xmlns="http://www.w3.org/2000/svg" enable-background="new 0 0 843 823" viewBox="0 0 843 823"><path fill="#cce9ff" d="M290.8,66.9c87.1-57.4,209.5-45.7,286.5,39.5c42.1,46.6,59.2,110.7,102.9,156.3
	c49.2,51.3,108,101.2,130.3,171.2c23.7,74.4,2.9,159.7-50.1,216.6c-64.5,69.2-159.3,48.4-248.9,47.3
	c-366.9-4.6-639.6-249.5-292.6-551.4C247.9,121,262,85.8,290.8,66.9z"/><path fill="#fff" d="M616,281H499c-6.6,0-12-5.4-12-12v-76c0-6.6,5.4-12,12-12h117c6.6,0,12,5.4,12,12v76
	C628,275.6,622.6,281,616,281z"/><path fill="#ffbe55" d="M480.6,195.1v75.1c0,10.4,8.4,18.8,18.8,18.8H612c10.4,0,18.8-8.4,18.8-18.8v-75.1c0-10.4-8.4-18.8-18.8-18.8
	H499.4C489,176.3,480.6,184.7,480.6,195.1z M490.4,272.1c-0.1-0.6-0.4-1.2-0.4-1.8v-75.1c0-1,0.3-1.9,0.6-2.7l39.7,34.1L490.4,272.1
	z M612,185.7c0.6,0,1.2,0.2,1.8,0.4l-58.1,49.8l-58.1-49.8c0.6-0.1,1.1-0.4,1.8-0.4H612z M581.1,226.4l39.7-34.1
	c0.3,0.9,0.6,1.8,0.6,2.7v75.1c0,0.7-0.2,1.2-0.4,1.8L581.1,226.4z M499.4,279.6c-1,0-1.8-0.3-2.7-0.5l40.7-46.5l15.2,13.1
	c0.9,0.8,2,1.1,3.1,1.1s2.2-0.4,3.1-1.1l15.2-13.1l40.7,46.5c-0.9,0.3-1.7,0.5-2.7,0.5H499.4z"/><path fill="#fff" d="M673,496h-88c-6.6,0-12-5.4-12-12v-55.4c0-6.6,5.4-12,12-12h88c6.6,0,12,5.4,12,12V484
	C685,490.6,679.6,496,673,496z"/><path fill="#2a94f4" d="M569.8,427.3v59.4c0,8.2,6.6,14.9,14.9,14.9h89.1c8.2,0,14.9-6.6,14.9-14.9v-59.4c0-8.2-6.6-14.9-14.9-14.9
	h-89.1C576.5,412.5,569.8,419.1,569.8,427.3z M577.5,488.2c-0.1-0.5-0.3-0.9-0.3-1.5v-59.4c0-0.8,0.2-1.5,0.4-2.2l31.4,26.9
	L577.5,488.2z M673.8,419.9c0.5,0,0.9,0.2,1.4,0.3l-45.9,39.4l-45.9-39.4c0.5-0.1,0.9-0.3,1.4-0.3H673.8z M649.3,452.1l31.4-26.9
	c0.2,0.7,0.4,1.4,0.4,2.2v59.4c0,0.5-0.2,1-0.3,1.5L649.3,452.1z M584.7,494.1c-0.8,0-1.4-0.2-2.1-0.4l32.2-36.8l12.1,10.3
	c0.7,0.6,1.6,0.9,2.4,0.9c0.9,0,1.7-0.3,2.4-0.9l12.1-10.3l32.2,36.8c-0.7,0.2-1.4,0.4-2.1,0.4H584.7z"/><path fill="#cce9ff" d="M716.4,182.4v40.2c0,5.6,4.5,10.1,10.1,10.1h60.3c5.6,0,10.1-4.5,10.1-10.1v-40.2c0-5.6-4.5-10.1-10.1-10.1
	h-60.3C720.9,172.3,716.4,176.8,716.4,182.4z M721.7,223.6c-0.1-0.3-0.2-0.6-0.2-1v-40.2c0-0.5,0.1-1,0.3-1.5l21.3,18.2L721.7,223.6
	z M786.8,177.4c0.3,0,0.6,0.1,0.9,0.2l-31.1,26.7l-31.1-26.7c0.3-0.1,0.6-0.2,0.9-0.2H786.8z M770.3,199.2l21.3-18.2
	c0.1,0.5,0.3,0.9,0.3,1.5v40.2c0,0.3-0.1,0.7-0.2,1L770.3,199.2z M726.5,227.6c-0.5,0-1-0.1-1.4-0.3l21.8-24.9l8.2,7
	c0.5,0.4,1.1,0.6,1.6,0.6c0.6,0,1.2-0.2,1.6-0.6l8.2-7l21.8,24.9c-0.5,0.1-0.9,0.3-1.4,0.3H726.5z"/><path fill="#fff" d="M733,390h-36c-6.6,0-12-5.4-12-12v-21.4c0-6.6,5.4-12,12-12h36c6.6,0,12,5.4,12,12V378
	C745,384.6,739.6,390,733,390z"/><path fill="#ffbe55" d="M683.5,351.6v31.2c0,4.3,3.5,7.8,7.8,7.8h46.8c4.3,0,7.8-3.5,7.8-7.8v-31.2c0-4.3-3.5-7.8-7.8-7.8h-46.8
	C687,343.9,683.5,347.3,683.5,351.6z M687.6,383.6c-0.1-0.3-0.2-0.5-0.2-0.8v-31.2c0-0.4,0.1-0.8,0.2-1.1l16.5,14.1L687.6,383.6z
	 M738.1,347.8c0.3,0,0.5,0.1,0.7,0.1l-24.1,20.7l-24.1-20.7c0.2,0,0.5-0.1,0.7-0.1H738.1z M725.2,364.6l16.5-14.1
	c0.1,0.4,0.2,0.7,0.2,1.1v31.2c0,0.3-0.1,0.5-0.2,0.8L725.2,364.6z M691.3,386.7c-0.4,0-0.8-0.1-1.1-0.2l16.9-19.3l6.3,5.4
	c0.4,0.3,0.8,0.5,1.3,0.5c0.5,0,0.9-0.2,1.3-0.5l6.3-5.4l16.9,19.3c-0.4,0.1-0.7,0.2-1.1,0.2H691.3z"/><path fill="#2a94f4" d="M612.4,94.6V127c0,4.5,3.6,8.1,8.1,8.1h48.5c4.5,0,8.1-3.6,8.1-8.1V94.6c0-4.5-3.6-8.1-8.1-8.1h-48.5
	C616.1,86.5,612.4,90.1,612.4,94.6z M616.7,127.8c-0.1-0.3-0.2-0.5-0.2-0.8V94.6c0-0.4,0.1-0.8,0.2-1.2l17.1,14.7L616.7,127.8z
	 M669.1,90.6c0.3,0,0.5,0.1,0.8,0.2l-25,21.5l-25-21.5c0.3-0.1,0.5-0.2,0.8-0.2H669.1z M655.8,108.1l17.1-14.7
	c0.1,0.4,0.2,0.8,0.2,1.2V127c0,0.3-0.1,0.5-0.2,0.8L655.8,108.1z M620.5,131c-0.4,0-0.8-0.1-1.2-0.2l17.5-20l6.6,5.6
	c0.4,0.3,0.8,0.5,1.3,0.5c0.5,0,0.9-0.2,1.3-0.5l6.6-5.6l17.5,20c-0.4,0.1-0.7,0.2-1.2,0.2H620.5z"/><rect width="6" height="6" x="528.2" y="292.3" fill="none"/><circle cx="531.2" cy="295.3" r="3" fill="#6b6b6b"/><rect width="6" height="6" x="518.7" y="297.4" fill="none"/><circle cx="521.7" cy="300.4" r="3" fill="#6b6b6b"/><rect width="6" height="6" x="509.4" y="302.8" fill="none"/><circle cx="512.4" cy="305.8" r="3" fill="#6b6b6b"/><rect width="6" height="6" x="501.9" y="310.5" fill="none"/><circle cx="504.9" cy="313.5" r="3" fill="#6b6b6b"/><rect width="6" height="6" x="495.5" y="319.1" fill="none"/><circle cx="498.5" cy="322.1" r="3" fill="#6b6b6b"/><rect width="6" height="6" x="490.6" y="328.7" fill="none"/><circle cx="493.6" cy="331.7" r="3" fill="#6b6b6b"/><g><rect width="6" height="6" x="487.5" y="339" fill="none"/><circle cx="490.5" cy="342" r="3" fill="#6b6b6b"/></g><g><rect width="6" height="6" x="544.7" y="381.5" fill="none"/><circle cx="547.7" cy="384.5" r="3" fill="#6b6b6b"/><rect width="6" height="6" x="533.9" y="381.5" fill="none"/><circle cx="536.9" cy="384.5" r="3" fill="#6b6b6b"/><rect width="6" height="6" x="523.1" y="381.5" fill="none"/><circle cx="526.1" cy="384.5" r="3" fill="#6b6b6b"/><g><rect width="6" height="6" x="512.3" y="381.5" fill="none"/><circle cx="515.3" cy="384.5" r="3" fill="#6b6b6b"/></g><g><rect width="6" height="6" x="501.5" y="381.5" fill="none"/><circle cx="504.5" cy="384.5" r="3" fill="#6b6b6b"/></g></g><g><rect width="6" height="6" x="669.7" y="364.1" fill="none"/><circle cx="672.7" cy="367.1" r="3" fill="#6b6b6b"/><rect width="6" height="6" x="658.9" y="363.8" fill="none"/><circle cx="661.9" cy="366.8" r="3" fill="#6b6b6b"/><rect width="6" height="6" x="648.1" y="363.5" fill="none"/><circle cx="651.1" cy="366.5" r="3" fill="#6b6b6b"/><rect width="6" height="6" x="637.6" y="366.1" fill="none"/><circle cx="640.6" cy="369.1" r="3" fill="#6b6b6b"/><rect width="6" height="6" x="627.2" y="369" fill="none"/><circle cx="630.2" cy="372" r="3" fill="#6b6b6b"/><g><rect width="6" height="6" x="618.3" y="375" fill="none"/><circle cx="621.3" cy="378" r="3" fill="#6b6b6b"/></g><g><rect width="6" height="6" x="610.2" y="382" fill="none"/><circle cx="613.2" cy="385" r="3" fill="#6b6b6b"/></g><g><rect width="6" height="6" x="603.7" y="390.6" fill="none"/><circle cx="606.7" cy="393.6" r="3" fill="#6b6b6b"/></g><g><rect width="6" height="6" x="599.1" y="400.3" fill="none"/><circle cx="602.1" cy="403.3" r="3" fill="#6b6b6b"/></g></g><g><rect width="6" height="6" x="720" y="239.1" fill="none"/><circle cx="723" cy="242.1" r="3" fill="#6b6b6b"/><rect width="6" height="6" x="711.1" y="245.3" fill="none"/><circle cx="714.1" cy="248.3" r="3" fill="#6b6b6b"/><rect width="6" height="6" x="701.2" y="249.4" fill="none"/><circle cx="704.2" cy="252.4" r="3" fill="#6b6b6b"/><rect width="6" height="6" x="691.1" y="253.3" fill="none"/><circle cx="694.1" cy="256.3" r="3" fill="#6b6b6b"/><rect width="6" height="6" x="680.6" y="255.6" fill="none"/><circle cx="683.6" cy="258.6" r="3" fill="#6b6b6b"/><g><rect width="6" height="6" x="670" y="257.7" fill="none"/><circle cx="673" cy="260.7" r="3" fill="#6b6b6b"/></g><g><rect width="6" height="6" x="659.2" y="258.6" fill="none"/><circle cx="662.2" cy="261.6" r="3" fill="#6b6b6b"/></g><g><rect width="6" height="6" x="648.4" y="259" fill="none"/><circle cx="651.4" cy="262" r="3" fill="#6b6b6b"/></g><g><rect width="6" height="6" x="637.6" y="258.7" fill="none"/><circle cx="640.6" cy="261.7" r="3" fill="#6b6b6b"/></g></g><g><rect width="6" height="6" x="596.8" y="112.5" fill="none"/><circle cx="599.8" cy="115.5" r="3" fill="#6b6b6b"/><rect width="6" height="6" x="586.4" y="115.3" fill="none"/><circle cx="589.4" cy="118.3" r="3" fill="#6b6b6b"/><rect width="6" height="6" x="577.8" y="121.6" fill="none"/><circle cx="580.8" cy="124.6" r="3" fill="#6b6b6b"/><rect width="6" height="6" x="571.4" y="129.9" fill="none"/><circle cx="574.4" cy="132.9" r="3" fill="#6b6b6b"/><g><rect width="6" height="6" x="567.6" y="140" fill="none"/><circle cx="570.6" cy="143" r="3" fill="#6b6b6b"/></g><g><rect width="6" height="6" x="566.4" y="150.7" fill="none"/><circle cx="569.4" cy="153.7" r="3" fill="#6b6b6b"/></g><g><rect width="6" height="6" x="567.2" y="161.5" fill="none"/><circle cx="570.2" cy="164.5" r="3" fill="#6b6b6b"/></g></g><g><path fill="#0b4870" d="M395.8,702c0.8-0.3,1.5-0.5,2.3-0.8c0,0-0.3-0.6-0.8-1.8c-8.2-17-76.4-151.4-207.9-177.2
		c-1-0.2-2.1-0.4-3.1-0.6c-16.7-3-34.3-4.3-52.9-3.4c0,0-26.1,0.5-58.2,23.1c-0.7,0.5-1.4,1-2.2,1.5c-14.4,10.5-29.9,25.6-44.8,47
		c-0.3,0.4-0.6,0.8-0.9,1.2c0,0,0.2,0.6,0.7,1.7c4.6,10.6,31.4,67.1,94.8,104.2c0.8,0.5,1.7,1,2.5,1.4
		C182.8,731.2,269.5,747.8,395.8,702z"/><path fill="#fff" d="M397.8,702.6l0.3-1.4l0.3-1.4l-1.1-0.3L28.2,590c-0.3,0.4-0.6,0.8-0.9,1.2c0,0,0.2,0.6,0.7,1.7L395.8,702
			L397.8,702.6z"/><path fill="#fff" d="M125.4 698.6l55.1-61.8-1.8-2.2-55.8 62.6C123.7 697.7 124.5 698.1 125.4 698.6zM247.9 656.7l3.1.4-61.6-134.8c-1-.2-2.1-.4-3.1-.6L247.9 656.7zM109.7 616.7l2.2-1.4-36.8-73.9c-.7.5-1.4 1-2.2 1.5L109.7 616.7z"/></g><g><path fill="#2a94f4" d="M390.6,696.1c0.4,0.3,0.8,0.6,1.2,0.9c0,0,0.2-0.4,0.7-1c6.4-10.1,55.4-92.3,24.7-171.6
		c-0.2-0.6-0.5-1.3-0.7-1.9c-4-10-9.3-19.9-16.1-29.6c0,0-9.1-13.8-32.1-23.4c-0.5-0.2-1-0.4-1.6-0.6c-10.5-4.2-23.9-7.4-40.4-8.1
		c-0.3,0-0.6,0-1,0c0,0-0.2,0.3-0.7,1c-4.1,6-25.4,39.5-23.8,86.2c0,0.6,0,1.2,0.1,1.8C302.8,591.7,323.3,643.8,390.6,696.1z"/><path fill="#fff" d="M391,697.4l0.9-0.3l0.9-0.3l-0.2-0.7l-66.3-235.1c-0.3,0-0.6,0-1,0c0,0-0.2,0.3-0.7,1l66,234.3L391,697.4z"/><path fill="#fff" d="M300.9 549.8l51.8 8.7.5-1.7-52.5-8.8C300.8 548.6 300.8 549.2 300.9 549.8zM364.9 601.4l.8 1.8 51.5-78.7c-.2-.6-.5-1.3-.7-1.9L364.9 601.4zM339.5 513.7l1.5.7 27.2-44.8c-.5-.2-1-.4-1.6-.6L339.5 513.7z"/></g><g><path fill="#ffbe55" d="M391.4,701.5c0.7,0.1,1.4,0.1,2,0.2c0,0,0-0.5,0-1.5c0-14.8-3.1-132.9-93.9-196.1c-0.7-0.5-1.4-1-2.2-1.5
		c-11.6-7.8-24.6-14.8-39.1-20.5c0,0-20.1-8.6-52.7-3.6c-0.7,0.1-1.5,0.2-2.2,0.3c-14.8,2.5-32.1,7.8-51.2,17.8
		c-0.4,0.2-0.7,0.4-1.1,0.6c0,0,0,0.5-0.1,1.5c-0.4,9-0.5,58,34.4,105.9c0.5,0.6,0.9,1.2,1.4,1.9
		C218.5,649.1,278.6,690.5,391.4,701.5z"/><path fill="#fff" d="M392.7,702.6l0.7-0.9l0.7-0.9l-0.7-0.6L152.1,496.6c-0.4,0.2-0.7,0.4-1.1,0.6c0,0,0,0.5-0.1,1.5l240.4,202.8
		L392.7,702.6z"/><path fill="#fff" d="M186.7 606.4l64.4-24.7-.6-2.2-65.2 25C185.8 605.2 186.2 605.8 186.7 606.4zM295.3 618.8l2.2 1.4 2.1-116.2c-.7-.5-1.4-1-2.2-1.5L295.3 618.8zM204.5 543.3l2.2-.2-1.2-64.7c-.7.1-1.5.2-2.2.3L204.5 543.3z"/></g><g><polygon fill="#dba17b" points="449.7 707.3 446 736.3 433.5 740.8 436.8 706"/><polygon fill="#dba17b" points="392.7 707.3 389 736.3 376.5 740.8 379.8 706"/><polygon fill="#cc9271" points="408.9 348.5 389.2 373.6 408 383.8 429.1 357.7"/><path fill="#dba17b" d="M459.4,350.3c-0.6-3.8-1-7.7-1.3-11.6c-0.2-3.1-0.1-6.2,0-9.3c0.3-3.1,0.3-6.2,0.1-9.1c0,0.1-0.1,0.2-0.1,0.3
		c-0.2-2.6-0.6-5.2-1.3-7.7c-2-6.3-6.1-12.2-12.5-14.4c-12.8-4.3-28.4,7.7-34.9,26.9c-6.5,19.2-1.4,38.3,11.4,42.6
		c9.1,3.1,19.6-2.1,27.2-12.2c3-0.1,6-0.3,8.9-1.1c1-0.3,2-0.7,2.5-1.6C459.7,352.2,459.6,351.2,459.4,350.3z"/><path fill="#0b4870" d="M470 318.7c4.1-1.4 7.6-4.9 8.4-9.1.8-4.3-1.6-9.1-5.7-10.5-3.1-1.1-6.8-.2-9.6-1.8-1.7-1-2.8-2.7-4-4.2-6.6-8.4-17.5-13.2-28.1-12.4-10.6.8-20.7 7.1-26 16.3-4.5 7.8-5.6 17.1-4.8 26 .8 8.9 3.5 17.6 6.1 26.1 4.4-8.7 8.8-17.4 13.2-26 1-1.9 2-3.9 3.8-5 1.8-1.1 4.6-1 5.6.8.7 1.2.5 2.7.5 4 0 1.4.2 3 1.4 3.6 1.3.7 3-.1 4.2-1 2.6-1.9 4.9-4.2 7-6.7 1.3-1.6 2.6-3.6 4.5-4.4 2.1-.9 3.9.1 5.8 1.2 2.6 1.5 5.3 2.9 8.3 3.5C463.7 319.7 467 319.7 470 318.7zM456.8 500.6c3.9 25 7.6 68.5 11.5 93.5 5.7 36.7-12.4 91.6-19.1 128.1-4.9-.6-9.2-2.1-14.1-2.7 1.6-61.9-1.2-140.8-5.2-202.6C438.6 518 448.1 499.5 456.8 500.6z"/><path fill="#0e538c" d="M396.1,518c5.1,0.3,10.1-4.3,15.2-3.9c6.2,0.4,12.9,1.6,18.8,3.4c5.9,1.8,12.8-3.7,18.6-5.7
		c1.2,10-0.9,27.8-2.8,37.7c-4.4,23.2-9.5,46.2-15.4,69c-3.2,12.6-12.7,24.7-17.7,36.7c-2.1,5.1-4.1,10.4-6,15.6
		c-4,10.8-10.9,41.2-14.9,52c-4.9-0.4-9.9-0.5-14.8-0.9c0.5-10.9,4.8-42.3,5.2-53.2c0.8-18.2,9.9-37.3,17.1-54.1
		c-3.6-17.4-3.7-36.3-3.6-54.1C395.9,544.8,396,533.6,396.1,518z"/><path fill="#dba17b" d="M465.2,450.8c1.8,0.3,3.9,0.2,5.3-1c0.7-0.6,1.2-1.5,1.7-2.2c1.7-2,4.6-3,7.1-2.4c5.2,1.3,7.7,7.9,12.9,9
		c0.8,0.2,1.6,0.2,2.4,0.5c0.8,0.3,1.5,0.8,1.6,1.6c0.2,1-0.5,1.8-1.2,2.6c-0.9,1-1.9,2-2.8,3c-0.4,0.4-0.9,0.9-1.4,1.1
		c-1.1,0.5-2.5,0-3.4,0.7c-0.8,0.6-1,1.8-1.9,2.4c-1.3,0.8-3.1-0.4-4.6,0.2c-0.8,0.3-1.3,1-1.9,1.4c-1.1,0.7-2.6,0.6-3.9,0.2
		c-1.3-0.5-2.4-1.3-3.5-1.9c-1.5-0.8-3.1-1.4-4.7-1.9c-4.4-1.1-9.1-0.8-13.7-0.4c-0.2-3.6-0.3-7.2-0.5-10.8c0-0.6,0-1.3,0.3-1.9
		c0.6-1.1,2.2-1.1,3.5-0.8c1.6,0.4,2.4,0.3,3.9,0C461.9,449.9,463.7,450.6,465.2,450.8z"/><path fill="#0b4870" d="M477,464.6L477,464.6c-0.5-0.8-0.3-1.9,0.5-2.4l28.8-19c0.8-0.5,1.9-0.3,2.4,0.5l0,0c0.5,0.8,0.3,1.9-0.5,2.4
		l-28.8,19C478.6,465.6,477.5,465.4,477,464.6z"/><path fill="#cce9ff" d="M454,721.3c0.4-0.9,1.5-1.2,2.2-0.6c3.1,2.6,11.4,8.5,27.9,12.3c0,0,4,0.8,6.9,5.5h-61.2v-10.8
		c0-1.2,1.4-1.8,2.3-1.1l2.4,2c1.1,1,2.6,1.5,4,1.5l8.8,0.1c1.9,0,3.6-1.1,4.3-2.9L454,721.3z"/><rect width="61.2" height="6.3" x="429.9" y="738.5" fill="#0e538c" transform="rotate(-180 460.485 741.664)"/><path fill="#cce9ff" d="M394.2,724.7c0.6-0.7,1.8-0.6,2.3,0.2c2,3.5,7.9,11.8,22,21.1c0,0,3.5,2.2,4.7,7.5l-57.6-20.7l3.7-10.2
		c0.4-1.1,1.9-1.3,2.5-0.2l1.5,2.7c0.7,1.3,1.9,2.3,3.3,2.8l8.2,3c1.8,0.7,3.8,0.1,5-1.3L394.2,724.7z"/><rect width="61.2" height="6.3" x="362.8" y="742.9" fill="#0e538c" transform="rotate(-160.203 393.322 746.107)"/><path fill="#2a94f4" d="M454.9,445.7c4.4,14.7,7.7,37.8,9.8,53c0.5,3.6,0.2,17.2-2.3,19.8c-1.5,1.6-40.2,5.9-56.3,11.2
		c-2.2,0.7-12.7,4.8-14.8,3.9c-3-1.3-4.6-14.5-3.9-17.6c9.3-40.1,9.3-10.6-4.3-89.5c-2.7-15.8-7.9-30.4-2.5-45.5
		c1.8-5,15.4-19.6,15.4-19.6s4.6,4.9,9.3,7.7c3.9,2.3,9,6.4,12.3,7.2C432.7,379.8,449.6,428,454.9,445.7z"/><path fill="#dba17b" d="M436.2,552.7c1.3,2.8,1.9,5.9,2.2,8.9c0.4,5.3-0.2,10.6-1.7,15.6c-2.2-0.5-4-2.5-4.3-4.8c1,1.6,0.1,4-1.7,4.5
		c-1.8,0.5-3.8-1.2-3.7-3.1c-0.5,1.6-2.3,2.8-3.9,2.5c-1.7-0.3-3-1.9-2.9-3.6c0.7,0.5,0.5,1.7-0.1,2.2c-0.7,0.5-1.7,0.4-2.4,0
		c-0.7-0.4-1.2-1.2-1.5-2c-0.5-1.4-0.7-2.9-0.8-4.4c-0.5-6.4-0.9-12.9-1.4-19.3c-0.1-0.9-0.1-1.8,0.3-2.6c0.8-1.5,2.9-1.7,4.7-1.6
		c2.3,0.1,4.6,0.2,6.9,0.3c1.5,0.1,3.1,0,4.5,0.5C432.9,547,435,550.3,436.2,552.7z"/><path fill="#2a94f4" d="M411.2,402.5c-0.8,13.5-1.6,27.1-2.5,40.6c-0.5,7.5-0.9,15.1,0.2,22.5c0.9,6.2,2.8,12.2,4.7,18.1
		c6.9,21.4,13.8,42.8,20.8,64.2c-7.4-0.5-14.9-1-22.3-1.5c-5.9-22.9-17.3-63.8-18.3-67.5c-8.2-25.7-11.1-53-8.5-79.8L411.2,402.5z"/></g><path fill="#ffbe55" d="M377,271c0-26.5-29.1-48-65-48s-65,21.5-65,48c0,26.5,29.1,48,65,48c6.8,0,13.4-0.8,19.5-2.2v0L355,336v-29
	C368.5,298.2,377,285.3,377,271z"/><g><path fill="#fff" d="M339.5,224.5c0-21.5-23.6-39-52.8-39s-52.8,17.4-52.8,39c0,21.5,23.6,39,52.8,39c5.5,0,10.9-0.6,15.9-1.8v0
		l19,15.6v-23.5C332.6,246.5,339.5,236.1,339.5,224.5z"/><path fill="#ffbe55" d="M314 210.5h-57c-.8 0-1.5-.7-1.5-1.5s.7-1.5 1.5-1.5h57c.8 0 1.5.7 1.5 1.5S314.8 210.5 314 210.5zM314 221.3h-57c-.8 0-1.5-.7-1.5-1.5s.7-1.5 1.5-1.5h57c.8 0 1.5.7 1.5 1.5S314.8 221.3 314 221.3zM314 232.2h-57c-.8 0-1.5-.7-1.5-1.5s.7-1.5 1.5-1.5h57c.8 0 1.5.7 1.5 1.5S314.8 232.2 314 232.2zM314 243h-57c-.8 0-1.5-.7-1.5-1.5s.7-1.5 1.5-1.5h57c.8 0 1.5.7 1.5 1.5S314.8 243 314 243z"/></g></svg>