<svg id="visual" viewBox="0 0 900 450" width="900" height="450" xmlns="http://www.w3.org/2000/svg" xmlns:xlink="http://www.w3.org/1999/xlink" version="1.1"><rect x="0" y="0" width="900" height="450" fill="#fff"></rect><path d="M399 0L334 0L334 20L553 20L553 39L568 39L568 59L353 59L353 78L377 78L377 98L375 98L375 117L419 117L419 137L479 137L479 157L437 157L437 176L624 176L624 196L606 196L606 215L592 215L592 235L403 235L403 254L410 254L410 274L629 274L629 293L614 293L614 313L432 313L432 333L332 333L332 352L338 352L338 372L595 372L595 391L408 391L408 411L547 411L547 430L436 430L436 450L0 450L0 430L0 430L0 411L0 411L0 391L0 391L0 372L0 372L0 352L0 352L0 333L0 333L0 313L0 313L0 293L0 293L0 274L0 274L0 254L0 254L0 235L0 235L0 215L0 215L0 196L0 196L0 176L0 176L0 157L0 157L0 137L0 137L0 117L0 117L0 98L0 98L0 78L0 78L0 59L0 59L0 39L0 39L0 20L0 20L0 0L0 0Z" fill="#457b9d"></path><path d="M297 0L411 0L411 20L309 20L309 39L323 39L323 59L518 59L518 78L467 78L467 98L458 98L458 117L443 117L443 137L492 137L492 157L322 157L322 176L524 176L524 196L481 196L481 215L547 215L547 235L516 235L516 254L487 254L487 274L344 274L344 293L284 293L284 313L474 313L474 333L532 333L532 352L527 352L527 372L547 372L547 391L344 391L344 411L281 411L281 430L505 430L505 450L0 450L0 430L0 430L0 411L0 411L0 391L0 391L0 372L0 372L0 352L0 352L0 333L0 333L0 313L0 313L0 293L0 293L0 274L0 274L0 254L0 254L0 235L0 235L0 215L0 215L0 196L0 196L0 176L0 176L0 157L0 157L0 137L0 137L0 117L0 117L0 98L0 98L0 78L0 78L0 59L0 59L0 39L0 39L0 20L0 20L0 0L0 0Z" fill="#68a2b8"></path><path d="M412 0L416 0L416 20L361 20L361 39L257 39L257 59L392 59L392 78L379 78L379 98L369 98L369 117L414 117L414 137L400 137L400 157L422 157L422 176L240 176L240 196L274 196L274 215L465 215L465 235L282 235L282 254L439 254L439 274L272 274L272 293L436 293L436 313L229 313L229 333L328 333L328 352L321 352L321 372L301 372L301 391L278 391L278 411L451 411L451 430L394 430L394 450L0 450L0 430L0 430L0 411L0 411L0 391L0 391L0 372L0 372L0 352L0 352L0 333L0 333L0 313L0 313L0 293L0 293L0 274L0 274L0 254L0 254L0 235L0 235L0 215L0 215L0 196L0 196L0 176L0 176L0 157L0 157L0 137L0 137L0 117L0 117L0 98L0 98L0 78L0 78L0 59L0 59L0 39L0 39L0 20L0 20L0 0L0 0Z" fill="#94cad1"></path><path d="M344 0L381 0L381 20L381 20L381 39L187 39L187 59L338 59L338 78L333 78L333 98L283 98L283 117L253 117L253 137L192 137L192 157L347 157L347 176L336 176L336 196L252 196L252 215L336 215L336 235L393 235L393 254L251 254L251 274L354 274L354 293L267 293L267 313L260 313L260 333L337 333L337 352L378 352L378 372L226 372L226 391L316 391L316 411L320 411L320 430L258 430L258 450L0 450L0 430L0 430L0 411L0 411L0 391L0 391L0 372L0 372L0 352L0 352L0 333L0 333L0 313L0 313L0 293L0 293L0 274L0 274L0 254L0 254L0 235L0 235L0 215L0 215L0 196L0 196L0 176L0 176L0 157L0 157L0 137L0 137L0 117L0 117L0 98L0 98L0 78L0 78L0 59L0 59L0 39L0 39L0 20L0 20L0 0L0 0Z" fill="#a8dadc"></path><path d="M219 0L215 0L215 20L181 20L181 39L230 39L230 59L130 59L130 78L171 78L171 98L212 98L212 117L183 117L183 137L199 137L199 157L223 157L223 176L154 176L154 196L154 196L154 215L180 215L180 235L251 235L251 254L262 254L262 274L287 274L287 293L124 293L124 313L154 313L154 333L132 333L132 352L208 352L208 372L158 372L158 391L229 391L229 411L172 411L172 430L287 430L287 450L0 450L0 430L0 430L0 411L0 411L0 391L0 391L0 372L0 372L0 352L0 352L0 333L0 333L0 313L0 313L0 293L0 293L0 274L0 274L0 254L0 254L0 235L0 235L0 215L0 215L0 196L0 196L0 176L0 176L0 157L0 157L0 137L0 137L0 117L0 117L0 98L0 98L0 78L0 78L0 59L0 59L0 39L0 39L0 20L0 20L0 0L0 0Z" fill="#94cad1"></path><path d="M120 0L90 0L90 20L84 20L84 39L58 39L58 59L138 59L138 78L73 78L73 98L171 98L171 117L65 117L65 137L173 137L173 157L133 157L133 176L232 176L232 196L112 196L112 215L201 215L201 235L189 235L189 254L224 254L224 274L124 274L124 293L112 293L112 313L233 313L233 333L62 333L62 352L141 352L141 372L177 372L177 391L62 391L62 411L205 411L205 430L149 430L149 450L0 450L0 430L0 430L0 411L0 411L0 391L0 391L0 372L0 372L0 352L0 352L0 333L0 333L0 313L0 313L0 293L0 293L0 274L0 274L0 254L0 254L0 235L0 235L0 215L0 215L0 196L0 196L0 176L0 176L0 157L0 157L0 137L0 137L0 117L0 117L0 98L0 98L0 78L0 78L0 59L0 59L0 39L0 39L0 20L0 20L0 0L0 0Z" fill="#68a2b8"></path><path d="M10 0L76 0L76 20L107 20L107 39L128 39L128 59L40 59L40 78L58 78L58 98L115 98L115 117L111 117L111 137L47 137L47 157L90 157L90 176L121 176L121 196L99 196L99 215L18 215L18 235L135 235L135 254L121 254L121 274L21 274L21 293L100 293L100 313L82 313L82 333L52 333L52 352L117 352L117 372L67 372L67 391L26 391L26 411L120 411L120 430L82 430L82 450L0 450L0 430L0 430L0 411L0 411L0 391L0 391L0 372L0 372L0 352L0 352L0 333L0 333L0 313L0 313L0 293L0 293L0 274L0 274L0 254L0 254L0 235L0 235L0 215L0 215L0 196L0 196L0 176L0 176L0 157L0 157L0 137L0 137L0 117L0 117L0 98L0 98L0 78L0 78L0 59L0 59L0 39L0 39L0 20L0 20L0 0L0 0Z" fill="#457b9d"></path></svg>