<svg xmlns="http://www.w3.org/2000/svg" enable-background="new 0 0 800 600" viewBox="0 0 800 600"><path fill="#00759f" d="M124.48 426.53c0 0-21.25-11.18-28.62-27.47-7.37-16.28-.17-39.1-2.39-46.76 13.6 14.38 21.96 18.55 27.9 35.14C127.31 404.04 125.58 421.87 124.48 426.53zM146.87 453.68c0 0-21.88 17.34-44.91.6-16.1-13.56-26.81-32.06-26.81-32.06s25.88 3.49 38.83 6.54C126.92 431.81 142.23 446.78 146.87 453.68zM694.08 426.53c0 0 21.25-11.18 28.62-27.47 7.37-16.28.17-39.1 2.39-46.76-13.6 14.38-21.96 18.55-27.9 35.14C691.25 404.04 692.97 421.87 694.08 426.53zM671.68 453.68c0 0 21.88 17.34 44.91.6 16.1-13.56 26.81-32.06 26.81-32.06s-25.88 3.49-38.83 6.54C691.63 431.81 676.32 446.78 671.68 453.68z"/><path fill="#00759f" d="M228.55,517.95c0,0-21.62,18.66-77.4,4.58c-40.66-10.26-74.16-50.41-74.16-50.41S156.81,441.9,228.55,517.95
				z"/><path fill="#741aac" d="M226.74,520.46c0,0-42.98-5-84.43-81.69c-30.22-55.89-19.75-134.43-19.75-134.43
				S238.09,362.44,226.74,520.46z"/><path fill="#741aac" d="M225.09,518.88c0,0-34.18-26.52-29.97-113.59c3.07-63.46,52.68-125.24,52.68-125.24
				S316.59,389.55,225.09,518.88z"/><path fill="#00759f" d="M586.88,514.71c0,0,21.35,18.42,76.43,4.52c40.15-10.13,73.24-49.78,73.24-49.78S657.73,439.6,586.88,514.71
				z"/><path fill="#741aac" d="M590.01,520.46c0,0,42.98-5,84.43-81.69c30.22-55.89,19.74-134.43,19.74-134.43S578.66,362.44,590.01,520.46
				z"/><path fill="#741aac" d="M591.66,518.88c0,0,34.18-26.52,29.97-113.59c-3.07-63.46-52.68-125.24-52.68-125.24
				S500.16,389.55,591.66,518.88z"/><linearGradient id="a" x1="411.181" x2="411.181" y1="-1.729" y2="568.8" gradientUnits="userSpaceOnUse"><stop offset="0" stop-color="#70b"/><stop offset="1" stop-color="#00008b"/><stop offset="1"/></linearGradient><path fill="url(#a)" d="M701.06,294.15c0-160.09-129.78-289.87-289.88-289.87c-160.09,0-289.88,129.78-289.88,289.87
					c0,91.32,42.25,220.93,108.24,274.06h363.27C658.81,515.08,701.06,385.47,701.06,294.15z"/><defs><filter id="b" width="367" height="267" x="228" y="254" filterUnits="userSpaceOnUse"><feColorMatrix values="1 0 0 0 0  0 1 0 0 0  0 0 1 0 0  0 0 0 1 0"/></filter></defs><path fill="#fff" d="M377.98 93.48c0 .63-.51 1.14-1.14 1.14-.63 0-1.14-.51-1.14-1.14 0-.63.51-1.14 1.14-1.14C377.47 92.34 377.98 92.85 377.98 93.48zM459.74 164.14c0 .63-.51 1.14-1.14 1.14-.63 0-1.14-.51-1.14-1.14 0-.63.51-1.14 1.14-1.14C459.23 162.99 459.74 163.51 459.74 164.14zM323.57 181.72c0 .63-.51 1.14-1.14 1.14s-1.14-.51-1.14-1.14c0-.63.51-1.14 1.14-1.14S323.57 181.09 323.57 181.72zM237.03 167.9c0 .63-.51 1.14-1.14 1.14-.63 0-1.14-.51-1.14-1.14 0-.63.51-1.14 1.14-1.14C236.52 166.75 237.03 167.26 237.03 167.9zM572.32 237.5c0 .63-.51 1.14-1.14 1.14s-1.14-.51-1.14-1.14c0-.63.51-1.14 1.14-1.14S572.32 236.87 572.32 237.5z"/><polygon fill="#619fff" points="576.07 161.32 577.28 163.78 580.01 164.18 578.04 166.1 578.5 168.81 576.07 167.53 573.63 168.81 574.1 166.1 572.13 164.18 574.85 163.78"/><polygon fill="#90c9ff" points="294.03 61.14 295.55 64.23 298.96 64.72 296.49 67.12 297.08 70.51 294.03 68.91 290.99 70.51 291.57 67.12 289.11 64.72 292.51 64.23"/><polygon fill="#90c9ff" points="635 212.07 636.53 215.15 639.93 215.65 637.47 218.05 638.05 221.44 635 219.84 631.96 221.44 632.54 218.05 630.08 215.65 633.48 215.15"/><circle cx="186.02" cy="202.91" r="4.03" fill="#90c9ff"/><defs><filter id="d" width="80.19" height="80.19" x="480.27" y="48.92" filterUnits="userSpaceOnUse"><feFlood flood-color="#fff" flood-opacity="1" result="back"/><feBlend in="SourceGraphic" in2="back"/></filter></defs><mask id="f" width="80.19" height="80.19" x="480.27" y="48.92" maskUnits="userSpaceOnUse"><g filter="url(#d)"><defs><filter id="e" width="80.19" height="80.19" x="480.27" y="48.92" filterUnits="userSpaceOnUse"><feFlood flood-color="#fff" flood-opacity="1" result="back"/><feBlend in="SourceGraphic" in2="back"/></filter></defs><linearGradient id="g" x1="231.32" x2="297.985" y1="279.598" y2="324.184" gradientTransform="scale(-1 1) rotate(44.854 128.14 -754.315)" gradientUnits="userSpaceOnUse"><stop offset="0" stop-color="#4d4d4d"/><stop offset=".293" stop-color="#898989"/><stop offset=".628" stop-color="#c8c8c8"/><stop offset=".873" stop-color="#f0f0f0"/><stop offset="1" stop-color="#fff"/></linearGradient><path fill="url(#g)" d="M491.94,117.3c15.62,15.7,41.01,15.76,56.71,0.14c15.7-15.62,15.76-41,0.15-56.7
						c-15.62-15.7-41.01-15.76-56.71-0.14C476.39,76.21,476.33,101.6,491.94,117.3z" mask="url(#f)"/></g></mask><linearGradient id="h" x1="231.32" x2="297.985" y1="279.598" y2="324.184" gradientTransform="scale(-1 1) rotate(44.854 128.14 -754.315)" gradientUnits="userSpaceOnUse"><stop offset="0" stop-color="#88cfda"/><stop offset=".008" stop-color="#89cfd9"/><stop offset=".478" stop-color="#c8d9bb"/><stop offset=".822" stop-color="#f0dfa7"/><stop offset="1" stop-color="#ffe1a0"/></linearGradient><path fill="url(#h)" d="M491.94,117.3c15.62,15.7,41.01,15.76,56.71,0.14c15.7-15.62,15.76-41,0.15-56.7
				c-15.62-15.7-41.01-15.76-56.71-0.14C476.39,76.21,476.33,101.6,491.94,117.3z"/><linearGradient id="i" x1="941.665" x2="781.388" y1="261.254" y2="175.455" gradientTransform="scale(-1 1) rotate(6.794 -708.403 -12288.29)" gradientUnits="userSpaceOnUse"><stop offset="1" stop-color="#00008b"/><stop offset="1"/></linearGradient><path fill="url(#i)" d="M568.17,393.6c-0.28-2.37,13.34-49.75,28.49-70.82c15.15-21.07,32.18-60.02,32.18-60.02
			s5.73,34.64-10.02,57.38c-15.75,22.75-22.44,33.98-22.44,33.98s11-22.18,37.31-23.71c26.31-1.53,19.54,22.56,19.54,22.56
			s-29.02-41.49-89.28,52.38"/><g><linearGradient id="j" x1="503.723" x2="607.708" y1="473.19" y2="300.688" gradientUnits="userSpaceOnUse"><stop offset="0" stop-color="#7633ff"/><stop offset=".159" stop-color="#7137ff"/><stop offset=".353" stop-color="#6243ff"/><stop offset=".568" stop-color="#4957ff"/><stop offset=".794" stop-color="#2672ff"/><stop offset="1" stop-color="#0090ff"/></linearGradient><path fill="url(#j)" d="M532.17,439.55c0,0-41.36,9.63-69.36-7.52c-28-17.14-46.36-41.46-46.36-41.46
				s31.28-10.53,51.45-6.36c20.17,4.17,37.82,26.99,37.87,25.15c0.05-1.84-21.52-31.03-23.27-50.23
				c-1.75-19.21,7.37-55.18,7.37-55.18s26.56,20.46,33.17,36.47c6.62,16,11.76,50.55,11.76,50.55s-3.52-30.22,8.72-55.28
				c12.25-25.06,43.36-45.33,43.36-45.33s11.57,31.28,2.07,61.79c-9.5,30.51-31.51,50.57-31.51,50.57s30.45-21.97,49.24-24.99
				c18.79-3.01,44.86,13.31,44.86,13.31s-26.66,29.66-47.27,34.98c-20.62,5.33-41.34,2.6-41.34,2.6s28.59,0.49,45.42,11.87
				c16.83,11.38,31.15,34.87,31.15,34.87s-39.84,4.72-64.96-8.04C549.42,454.55,532.17,439.55,532.17,439.55z"/><linearGradient id="k" x1="622.586" x2="622.429" y1="513.937" y2="514.707" gradientTransform="rotate(18.924 848.543 304.954)" gradientUnits="userSpaceOnUse"><stop offset=".074" stop-color="#cec228"/><stop offset=".58" stop-color="#b2ae18"/></linearGradient><path fill="url(#k)" d="M571.54,429.23c-5.16-0.55-8.61-0.62-8.61-0.62S566.27,429.04,571.54,429.23z"/><linearGradient id="l" x1="560.985" x2="576.344" y1="402.02" y2="402.02" gradientTransform="rotate(-12.552 430.484 641.862)" gradientUnits="userSpaceOnUse"><stop offset="0" stop-color="#70b"/><stop offset="1" stop-color="#00008b"/><stop offset="1"/></linearGradient><path fill="url(#l)" d="M495.89,326.06c0,0,5.07,66.99,36.6,102.87c-4.4-10.04-16.23-27.24-22.79-51.06
				C503.15,354.06,495.89,326.06,495.89,326.06z"/><linearGradient id="m" x1="478.81" x2="574.892" y1="428.058" y2="428.058" gradientTransform="rotate(-12.552 430.484 641.862)" gradientUnits="userSpaceOnUse"><stop offset="0" stop-color="#70b"/><stop offset="1" stop-color="#00008b"/><stop offset="1"/></linearGradient><path fill="url(#m)" d="M531.63,431.74c0,0-59.29-17.17-82.2-27.84c-17.01-7.43-24.94-11.21-24.94-11.21
				s12.85,10.48,49.55,24.63C510.74,431.46,531.63,431.74,531.63,431.74z"/><linearGradient id="n" x1="581.866" x2="661.893" y1="490.142" y2="490.142" gradientTransform="rotate(-12.552 430.484 641.862)" gradientUnits="userSpaceOnUse"><stop offset="0" stop-color="#70b"/><stop offset="1" stop-color="#00008b"/><stop offset="1"/></linearGradient><path fill="url(#n)" d="M539.07,433.03c0,0,36.36,9.66,66.94,25.32c14.47,7.53,23.57,12.95,23.57,12.95
				s-24.82-11.12-41.91-17.9C570.58,446.6,539.07,433.03,539.07,433.03z"/></g><linearGradient id="o" x1="267.506" x2="107.228" y1="322.086" y2="236.286" gradientTransform="rotate(6.783 42.654 366.05)" gradientUnits="userSpaceOnUse"><stop offset="1" stop-color="#00008b"/><stop offset="1"/></linearGradient><path fill="url(#o)" d="M257.48,374.25c0.28-2.37-13.34-49.75-28.49-70.82c-15.15-21.07-32.18-60.02-32.18-60.02
			s-5.73,34.64,10.02,57.38c15.75,22.75,22.44,33.98,22.44,33.98s-11-22.18-37.31-23.71c-26.31-1.53-19.54,22.56-19.54,22.56
			s29.02-41.49,89.28,52.38"/><g><path fill="none" stroke="#000" stroke-miterlimit="10" stroke-width="2.31" d="M546.53,271.73c0,0-17.03,25.5-27.68,62.56c-10.66,37.06-6.43,78.65-6.43,78.65"/><path fill="none" stroke="#000" stroke-miterlimit="10" stroke-width="2.31" d="M540.4 314.23c0 0-13.68 4.36-18.6 10.56.15-6.82 2.23-31.52 2.23-31.52M531.73 353.79c0 0-13.16 2.23-18.23 7.14-3.17-7.38-6.1-26.61-6.1-26.61M519.73 387.54c0 0-5.71 3.38-8.14 6.57-4.28-6.43-15.63-18.45-15.63-18.45"/><path fill="#00759f" d="M544.46 274.1c0 0 16.75-.5 24.05-12.06 7.3-11.56 8.76-21.63 8.76-21.63s-15.49 2.34-24.6 10.47C543.54 259.02 544.46 274.1 544.46 274.1zM540.4 314.23c0 0 9.15-14.2 21.55-20.06 10.98-4.43 26.02 3.79 26.02 3.79s-1.82 11.2-18.61 17.53C558.18 319.7 546.8 316.9 540.4 314.23zM508.26 337.68c0 0 5.85-23.81-5.11-33.21-10.97-9.39-15.25-11.6-15.25-11.6s-4.35 18.42.45 28.37C493.16 331.2 508.26 337.68 508.26 337.68zM528.43 354.34c0 0 14.49-13.91 25.34-13.92 10.85-.01 22.08 4.84 22.08 4.84s-6.8 13.88-23.63 14.29C535.4 359.97 528.43 354.34 528.43 354.34zM497.91 377.67c0 0-2.95-18.44-16.76-22.1-11.76-2.89-16.8-.19-16.8-.19s.57 9.02 7.49 16.57C478.76 379.51 497.91 377.67 497.91 377.67zM518.04 388.54c0 0 2.87-10.7 11.95-13.48 9.39-2.71 17.43 2.12 17.43 2.12s-1.18 11.18-11.69 13.75C525.21 393.5 518.04 388.54 518.04 388.54zM524.57 295.14c0 0 6.16-17.5 2.3-25.97-3.86-8.47-12.35-12.24-12.35-12.24s-6.59 9.78-4.21 19.2C512.69 285.55 524.57 295.14 524.57 295.14z"/></g><g><path fill="none" stroke="#000" stroke-miterlimit="10" stroke-width="2.31" d="M255.37,275.56c0,0,23.9,19.2,45.21,51.34c21.31,32.14,29.78,73.08,29.78,73.08"/><path fill="none" stroke="#000" stroke-miterlimit="10" stroke-width="2.31" d="M273.99 314.25c0 0 14.36.04 20.92 4.48-2.2-6.46-11.6-29.39-11.6-29.39M294.15 349.38c0 0 13.22-1.83 19.53 1.33.8-7.99-2.18-27.21-2.18-27.21M315.74 377.95c0 0 6.47 1.51 9.74 3.82 2.15-7.42 9.36-22.3 9.36-22.3"/><path fill="#00759f" d="M258.06 277.2c0 0-16.13 4.56-26.56-4.28-10.43-8.84-14.86-18-14.86-18s15.48-2.42 26.62 2.59C254.4 262.54 258.06 277.2 258.06 277.2zM273.99 314.25c0 0-12.99-10.79-26.58-12.65-11.8-.92-23.67 11.44-23.67 11.44s5.1 10.13 23.02 11.12C258.68 324.81 268.69 318.73 273.99 314.25zM311.7 326.96c0 0-12.74-20.95-5.1-33.21 7.64-12.25 11.06-15.65 11.06-15.65s9.69 16.26 8.1 27.2C324.15 316.24 311.7 326.96 311.7 326.96zM297.46 348.91c0 0-18-8.91-28.35-5.66-10.35 3.25-19.61 11.25-19.61 11.25s10.66 11.2 26.83 6.53C292.51 356.37 297.46 348.91 297.46 348.91zM333.59 361.99c0 0-2.73-18.47 9.34-26.11 10.34-6.3 15.96-5.23 15.96-5.23s2.17 8.77-2.16 18.06C352.4 357.99 333.59 361.99 333.59 361.99zM317.66 378.4c0 0-5.96-9.34-15.45-9.26-9.77.24-15.99 7.27-15.99 7.27s4.48 10.31 15.28 9.59C312.31 385.29 317.66 378.4 317.66 378.4zM283.36 291.29c0 0-11.14-14.84-10-24.08 1.14-9.24 8.11-15.38 8.11-15.38s9.23 7.35 9.78 17.05C291.8 278.57 283.36 291.29 283.36 291.29z"/></g><g><linearGradient id="p" x1="479.579" x2="573.089" y1="539.12" y2="390.793" gradientUnits="userSpaceOnUse"><stop offset="0" stop-color="#59023f"/><stop offset=".119" stop-color="#590444"/><stop offset=".265" stop-color="#5a0a53"/><stop offset=".426" stop-color="#5c156c"/><stop offset=".597" stop-color="#5e238f"/><stop offset=".776" stop-color="#6135bc"/><stop offset=".96" stop-color="#644cf2"/><stop offset="1" stop-color="#6551ff"/></linearGradient><path fill="url(#p)" d="M512.17,523.26c0,0-35.74,22.93-67.87,16.17c-32.13-6.76-57.58-23.53-57.58-23.53
				s25.95-20.4,46.35-23.23c20.4-2.83,44.68,12.75,44.11,11c-0.57-1.75-30.67-22.02-38.76-39.53
				c-8.09-17.51-11.55-54.45-11.55-54.45s31.88,10.38,43.48,23.24c11.6,12.86,28.03,43.68,28.03,43.68s-13.44-27.29-10.31-55.01
				c3.14-27.72,25.66-57.25,25.66-57.25s21.39,25.59,22.66,57.52c1.28,31.93-12.74,58.21-12.74,58.21s21.32-30.91,38.02-40.05
				c16.7-9.14,46.73-2.5,46.73-2.5s-15.17,36.87-32.81,48.8c-17.64,11.93-38.08,16.31-38.08,16.31s27.1-9.12,46.77-4.04
				c19.67,5.08,41.04,22.41,41.04,22.41s-35.95,17.8-63.9,14.2C533.45,531.62,512.17,523.26,512.17,523.26z"/><linearGradient id="q" x1="607.48" x2="607.323" y1="548.854" y2="549.624" gradientTransform="rotate(-.659 -3500.617 6255.81)" gradientUnits="userSpaceOnUse"><stop offset=".074" stop-color="#cec228"/><stop offset=".58" stop-color="#b2ae18"/></linearGradient><path fill="url(#q)" d="M545.81,500.35c-5.04,1.21-8.32,2.3-8.32,2.3S540.77,501.94,545.81,500.35z"/><linearGradient id="r" x1="529.913" x2="545.27" y1="424.868" y2="424.868" gradientTransform="rotate(-32.142 586.313 559.17)" gradientUnits="userSpaceOnUse"><stop offset="0" stop-color="#70b"/><stop offset="1" stop-color="#00008b"/><stop offset="1"/></linearGradient><path fill="url(#r)" d="M439.95,428.5c0,0,27.23,61.42,68.97,84.65c-7.51-7.98-24.42-20.22-38.58-40.46
				C456.17,452.45,439.95,428.5,439.95,428.5z"/><linearGradient id="s" x1="447.733" x2="543.818" y1="450.906" y2="450.906" gradientTransform="rotate(-32.142 586.313 559.17)" gradientUnits="userSpaceOnUse"><stop offset="0" stop-color="#70b"/><stop offset="1" stop-color="#00008b"/><stop offset="1"/></linearGradient><path fill="url(#s)" d="M509.05,516.09c0,0-61.61,3.69-86.77,1.32c-18.52-1.3-27.25-2.2-27.25-2.2
				s15.62,5.57,54.94,6.59C489.28,522.83,509.05,516.09,509.05,516.09z"/></g><g><linearGradient id="t" x1="311.025" x2="94.189" y1="433.937" y2="317.861" gradientUnits="userSpaceOnUse"><stop offset="0" stop-color="#7633ff"/><stop offset=".159" stop-color="#7137ff"/><stop offset=".353" stop-color="#6243ff"/><stop offset=".568" stop-color="#4957ff"/><stop offset=".794" stop-color="#2672ff"/><stop offset="1" stop-color="#0090ff"/></linearGradient><path fill="url(#t)" d="M302.26,436.85c0,0,39.34-15.98,52.34-46.14c12.99-30.15,13.97-60.61,13.97-60.61
				s-31.63,9.44-45.71,24.47c-14.07,15.03-15.34,43.86-16.44,42.38c-1.1-1.48-0.31-37.75-9.95-54.46
				c-9.64-16.7-37.83-40.83-37.83-40.83s-9.9,32.03-6.08,48.92c3.82,16.89,19.53,48.08,19.53,48.08s-14.55-26.72-39-40.14
				c-24.46-13.41-61.57-12.04-61.57-12.04s8.58,32.23,33.93,51.68c25.35,19.45,54.9,23.15,54.9,23.15s-37.55-0.4-54.64,7.98
				c-17.09,8.37-28.98,36.74-28.98,36.74s38.88,8.86,58.8,1.32c19.92-7.53,35.28-21.71,35.28-21.71s-23.08,16.88-30.26,35.89
				c-7.18,19-5.35,46.45-5.35,46.45s35.27-19.11,48.44-44.02C296.82,459.05,302.26,436.85,302.26,436.85z"/><linearGradient id="u" x1="348.356" x2="348.199" y1="898.863" y2="899.633" gradientTransform="scale(-1 1) rotate(54.134 480.815 70.715)" gradientUnits="userSpaceOnUse"><stop offset=".074" stop-color="#cec228"/><stop offset=".58" stop-color="#b2ae18"/></linearGradient><path fill="url(#u)" d="M264.14,451.12c3.9-3.42,6.67-5.47,6.67-5.47S268.34,447.92,264.14,451.12z"/></g><g><linearGradient id="v" x1="360.887" x2="263.078" y1="540.138" y2="373.54" gradientUnits="userSpaceOnUse"><stop offset="0" stop-color="#59023f"/><stop offset=".119" stop-color="#590444"/><stop offset=".265" stop-color="#5a0a53"/><stop offset=".426" stop-color="#5c156c"/><stop offset=".597" stop-color="#5e238f"/><stop offset=".776" stop-color="#6135bc"/><stop offset=".96" stop-color="#644cf2"/><stop offset="1" stop-color="#6551ff"/></linearGradient><path fill="url(#v)" d="M335.99,521.72c0,0,37.65,19.64,69.05,10.02c31.39-9.62,55.24-28.59,55.24-28.59
				s-27.67-18-48.24-18.99c-20.57-0.99-43.36,16.71-42.94,14.91c0.42-1.79,28.57-24.68,35.06-42.84
				c6.49-18.16,6.62-55.27,6.62-55.27s-30.82,13.19-41.22,27.04c-10.4,13.85-24,46.02-24,46.02s10.94-28.38,5.34-55.71
				c-5.61-27.32-30.69-54.71-30.69-54.71S301.2,391,302.8,422.92c1.59,31.91,17.9,56.83,17.9,56.83s-24.01-28.87-41.45-36.48
				c-17.45-7.61-46.77,1.7-46.77,1.7s18.42,35.37,37.06,45.67c18.63,10.3,39.39,12.83,39.39,12.83s-27.81-6.66-46.95,0.17
				c-19.13,6.83-38.86,26-38.86,26s37.4,14.51,64.91,8.41C315.55,531.95,335.99,521.72,335.99,521.72z"/><path fill="#00759f" d="M320.21,363.6c0,0,25.08,27.39,30.69,54.71c5.6,27.32-5.34,55.71-5.34,55.71s13.6-32.17,24-46.02
				c10.4-13.85,41.22-27.04,41.22-27.04s-0.14,37.11-6.62,55.27c-6.49,18.16-34.64,41.05-35.06,42.84
				c-0.42,1.8,22.38-15.91,42.94-14.91c20.57,0.99,48.24,18.99,48.24,18.99s-23.85,18.98-55.24,28.59
				c-31.4,9.62-69.05-10.02-69.05-10.02s-0.35,0.18-1.01,0.49C338.18,452.54,320.21,363.6,320.21,363.6z" opacity=".3"/><linearGradient id="w" x1="228.338" x2="228.181" y1="784.229" y2="784.999" gradientTransform="scale(-1 1) rotate(4.485 3550.266 -6163.56)" gradientUnits="userSpaceOnUse"><stop offset=".074" stop-color="#cec228"/><stop offset=".58" stop-color="#b2ae18"/></linearGradient><path fill="url(#w)" d="M300.44,501.91c5.13,0.76,8.49,1.55,8.49,1.55S305.59,503.05,300.44,501.91z"/><linearGradient id="x" x1="83.972" x2="99.334" y1="427.177" y2="427.177" gradientTransform="scale(-1 1) rotate(-26.996 -56.977 1408.051)" gradientUnits="userSpaceOnUse"><stop offset="0" stop-color="#70b"/><stop offset="1" stop-color="#00008b"/><stop offset="1"/></linearGradient><path fill="url(#x)" d="M399.42,420.86c0,0-21.62,63.61-61.1,90.49c6.77-8.62,22.51-22.33,34.8-43.76
				C385.42,446.17,399.42,420.86,399.42,420.86z"/><linearGradient id="y" x1="1.792" x2="97.882" y1="453.218" y2="453.218" gradientTransform="scale(-1 1) rotate(-26.996 -56.977 1408.051)" gradientUnits="userSpaceOnUse"><stop offset="0" stop-color="#70b"/><stop offset="1" stop-color="#00008b"/><stop offset="1"/></linearGradient><path fill="url(#y)" d="M338.46,514.29c0,0,61.7-1.84,86.54-6.46c18.33-2.95,26.95-4.63,26.95-4.63
				s-15.06,6.94-54.12,11.49C358.76,519.24,338.46,514.29,338.46,514.29z"/><linearGradient id="z" x1="103.623" x2="214.262" y1="476.601" y2="476.601" gradientTransform="scale(-1 1) rotate(-26.996 -56.977 1408.051)" gradientUnits="userSpaceOnUse"><stop offset="0" stop-color="#70b"/><stop offset="1" stop-color="#00008b"/><stop offset="1"/></linearGradient><path fill="url(#z)" d="M332.73,512.9c0,0-23.29-24.16-44.95-39.97c-21.65-15.82-46.34-24.55-46.34-24.55
				s32.42,19.42,44.58,28.15C298.17,485.26,332.73,512.9,332.73,512.9z"/></g><g><path d="M330.18,222.53c0,0,4.2,20.77-17.24,32.12c-7.17,2.49-20.55,2.72-27.98-4.37
				c10.91,5.3,20.62,6.19,27.8,3.39C316.83,250.26,328.55,245.81,330.18,222.53z"/><path d="M318.69,224.67c0,0,4.69,17.77-6.04,29.52c-10.65-2.35-19.47-10.48-22.04-16.26
				c3.45,3.97,12.87,13.34,21.55,15.44C316.22,246.53,320.25,237.89,318.69,224.67z"/><path d="M311.42,234.47c0,0,5.42,12.33,1.61,19.29c-2.03-1.19-11.81-10.04-14.58-23.59
				c4.06,7.56,5.49,14.3,13.98,21.62C313.51,247.17,311.78,236.32,311.42,234.47z"/><linearGradient id="A" x1="319.909" x2="329.192" y1="160.826" y2="160.826" gradientTransform="rotate(24.512 189.664 202.026)" gradientUnits="userSpaceOnUse"><stop offset="0" stop-color="#7633ff"/><stop offset=".159" stop-color="#7137ff"/><stop offset=".353" stop-color="#6243ff"/><stop offset=".568" stop-color="#4957ff"/><stop offset=".794" stop-color="#2672ff"/><stop offset="1" stop-color="#0090ff"/></linearGradient><path fill="url(#A)" d="M330.44,227.04c0,0,3.11-1.83,3.46-6.5c0.34-4.68-2.43-6.35-3.88-4.35
				c-0.63-1.41-1.26-0.71-1.27,0.2c-0.87-0.88-2.6-0.93-2.82,1.11C325.71,219.54,327.48,226.62,330.44,227.04z"/><linearGradient id="B" x1="310.728" x2="318.946" y1="167.797" y2="167.797" gradientTransform="rotate(24.512 189.664 202.026)" gradientUnits="userSpaceOnUse"><stop offset="0" stop-color="#7633ff"/><stop offset=".159" stop-color="#7137ff"/><stop offset=".353" stop-color="#6243ff"/><stop offset=".568" stop-color="#4957ff"/><stop offset=".794" stop-color="#2672ff"/><stop offset="1" stop-color="#0090ff"/></linearGradient><path fill="url(#B)" d="M318.99,228.31c0,0,3.55-2.23,1.92-7.46c-1.01-2.69-2.39-2.9-2.71-2.19
				c-0.39-0.32-2.05-0.57-2.14,0.86c-0.83-0.44-2.26,0.74-1.87,2.4C314.58,223.58,315.5,227.5,318.99,228.31z"/><linearGradient id="C" x1="309.736" x2="317.057" y1="180.842" y2="180.842" gradientTransform="rotate(24.512 189.664 202.026)" gradientUnits="userSpaceOnUse"><stop offset="0" stop-color="#7633ff"/><stop offset=".159" stop-color="#7137ff"/><stop offset=".353" stop-color="#6243ff"/><stop offset=".568" stop-color="#4957ff"/><stop offset=".794" stop-color="#2672ff"/><stop offset="1" stop-color="#0090ff"/></linearGradient><path fill="url(#C)" d="M312.43,238.73c0,0,2.82-1.88,1.18-6.35c-1.05-3.04-2.53-2.02-2.55-1.38
				c-0.57-0.85-1.53-0.69-1.64,0.06c-0.82-0.39-1.86,0.78-1.47,2.43C308.33,235.15,309.55,238.51,312.43,238.73z"/><linearGradient id="D" x1="293.848" x2="304.244" y1="181.012" y2="181.012" gradientTransform="rotate(24.512 189.664 202.026)" gradientUnits="userSpaceOnUse"><stop offset="0" stop-color="#7633ff"/><stop offset=".159" stop-color="#7137ff"/><stop offset=".353" stop-color="#6243ff"/><stop offset=".568" stop-color="#4957ff"/><stop offset=".794" stop-color="#2672ff"/><stop offset="1" stop-color="#0090ff"/></linearGradient><path fill="url(#D)" d="M300.04,234.4c0,0,2.72-1.3,1.97-5.49c-0.74-4.18-3.04-6.83-3.9-5.15
				c-0.84-0.64-2.25-1.86-3.53,0.56c-1.53,0.36-1.28,2.73-0.6,4.47C294.65,230.53,297.13,234.52,300.04,234.4z"/><linearGradient id="E" x1="289.978" x2="302.128" y1="207.334" y2="207.334" gradientTransform="rotate(24.512 189.664 202.026)" gradientUnits="userSpaceOnUse"><stop offset="0" stop-color="#7633ff"/><stop offset=".159" stop-color="#7137ff"/><stop offset=".353" stop-color="#6243ff"/><stop offset=".568" stop-color="#4957ff"/><stop offset=".794" stop-color="#2672ff"/><stop offset="1" stop-color="#0090ff"/></linearGradient><path fill="url(#E)" d="M289.94,253.22c0,0,0.81-2.9-2.83-5.09c-3.64-2.19-7.15-2.2-6.44-0.45
				c-1.03,0.21-2.88,0.47-1.9,3.03c-0.74,1.39,1.21,2.76,2.97,3.4C283.48,254.73,288.12,255.49,289.94,253.22z"/><linearGradient id="F" x1="289.947" x2="299.756" y1="192.639" y2="192.639" gradientTransform="rotate(24.512 189.664 202.026)" gradientUnits="userSpaceOnUse"><stop offset="0" stop-color="#7633ff"/><stop offset=".159" stop-color="#7137ff"/><stop offset=".353" stop-color="#6243ff"/><stop offset=".568" stop-color="#4957ff"/><stop offset=".794" stop-color="#2672ff"/><stop offset="1" stop-color="#0090ff"/></linearGradient><path fill="url(#F)" d="M292.95,240.74c0,0,1.31-1.33-0.31-4.19c-1.06-2.14-4.35-5.76-4.86-2.99
				c-1.53,0.03-3.28-0.37-2.55,2.73c-1.39,0.81-0.15,2.28,1.26,3.71C287.9,241.44,291.57,241.93,292.95,240.74z"/><path d="M313.63,252.45c0,0,0.06,0.11,0.17,0.32c1.89,3.63,18.71,36.65,11.96,46.89
				c0.67-5.21-0.15-11.73-4.77-24.88c-4.62-13.15-8.82-21.4-8.82-21.4l1.53-0.82"/></g><g><path d="M478.69,229.69c0,0-4.2,20.77,17.24,32.12c7.18,2.49,20.55,2.72,27.98-4.37
				c-10.91,5.3-20.62,6.19-27.8,3.39C492.05,257.43,480.33,252.98,478.69,229.69z"/><path d="M490.18,231.84c0,0-4.69,17.77,6.04,29.52c10.65-2.35,19.47-10.48,22.04-16.26
				c-3.45,3.97-12.87,13.34-21.55,15.44C492.65,253.7,488.63,245.06,490.18,231.84z"/><path d="M497.45,241.64c0,0-5.42,12.33-1.61,19.29c2.03-1.19,11.81-10.04,14.58-23.59
				c-4.06,7.56-5.49,14.3-13.98,21.62C495.37,254.34,497.1,243.49,497.45,241.64z"/><linearGradient id="G" x1="554.486" x2="563.769" y1="61.739" y2="61.739" gradientTransform="scale(-1 1) rotate(24.512 -342.035 -2245.572)" gradientUnits="userSpaceOnUse"><stop offset="0" stop-color="#7633ff"/><stop offset=".159" stop-color="#7137ff"/><stop offset=".353" stop-color="#6243ff"/><stop offset=".568" stop-color="#4957ff"/><stop offset=".794" stop-color="#2672ff"/><stop offset="1" stop-color="#0090ff"/></linearGradient><path fill="url(#G)" d="M478.43,234.21c0,0-3.11-1.83-3.46-6.5c-0.34-4.68,2.43-6.35,3.88-4.35
				c0.63-1.41,1.26-0.71,1.27,0.2c0.87-0.88,2.6-0.93,2.82,1.11C483.17,226.71,481.39,233.78,478.43,234.21z"/><linearGradient id="H" x1="545.306" x2="553.523" y1="68.71" y2="68.71" gradientTransform="scale(-1 1) rotate(24.512 -342.035 -2245.572)" gradientUnits="userSpaceOnUse"><stop offset="0" stop-color="#7633ff"/><stop offset=".159" stop-color="#7137ff"/><stop offset=".353" stop-color="#6243ff"/><stop offset=".568" stop-color="#4957ff"/><stop offset=".794" stop-color="#2672ff"/><stop offset="1" stop-color="#0090ff"/></linearGradient><path fill="url(#H)" d="M489.89,235.48c0,0-3.55-2.23-1.92-7.46c1.01-2.69,2.39-2.9,2.71-2.19
				c0.39-0.32,2.05-0.57,2.14,0.86c0.83-0.44,2.26,0.74,1.87,2.4C494.3,230.75,493.38,234.67,489.89,235.48z"/><linearGradient id="I" x1="544.313" x2="551.635" y1="81.756" y2="81.756" gradientTransform="scale(-1 1) rotate(24.512 -342.035 -2245.572)" gradientUnits="userSpaceOnUse"><stop offset="0" stop-color="#7633ff"/><stop offset=".159" stop-color="#7137ff"/><stop offset=".353" stop-color="#6243ff"/><stop offset=".568" stop-color="#4957ff"/><stop offset=".794" stop-color="#2672ff"/><stop offset="1" stop-color="#0090ff"/></linearGradient><path fill="url(#I)" d="M496.45,245.9c0,0-2.82-1.88-1.18-6.35c1.05-3.04,2.53-2.02,2.55-1.38
				c0.57-0.85,1.53-0.69,1.64,0.06c0.82-0.39,1.86,0.78,1.47,2.43C500.55,242.31,499.32,245.68,496.45,245.9z"/><linearGradient id="J" x1="528.425" x2="538.821" y1="81.926" y2="81.926" gradientTransform="scale(-1 1) rotate(24.512 -342.035 -2245.572)" gradientUnits="userSpaceOnUse"><stop offset="0" stop-color="#7633ff"/><stop offset=".159" stop-color="#7137ff"/><stop offset=".353" stop-color="#6243ff"/><stop offset=".568" stop-color="#4957ff"/><stop offset=".794" stop-color="#2672ff"/><stop offset="1" stop-color="#0090ff"/></linearGradient><path fill="url(#J)" d="M508.84,241.56c0,0-2.72-1.3-1.97-5.49c0.74-4.18,3.04-6.83,3.9-5.15
				c0.84-0.64,2.25-1.86,3.53,0.56c1.53,0.36,1.28,2.73,0.61,4.47C514.23,237.7,511.74,241.69,508.84,241.56z"/><linearGradient id="K" x1="524.556" x2="536.706" y1="108.248" y2="108.248" gradientTransform="scale(-1 1) rotate(24.512 -342.035 -2245.572)" gradientUnits="userSpaceOnUse"><stop offset="0" stop-color="#7633ff"/><stop offset=".159" stop-color="#7137ff"/><stop offset=".353" stop-color="#6243ff"/><stop offset=".568" stop-color="#4957ff"/><stop offset=".794" stop-color="#2672ff"/><stop offset="1" stop-color="#0090ff"/></linearGradient><path fill="url(#K)" d="M518.94,260.38c0,0-0.81-2.9,2.83-5.09c3.64-2.19,7.15-2.2,6.44-0.45
				c1.03,0.21,2.88,0.47,1.9,3.03c0.74,1.39-1.21,2.76-2.97,3.4C525.39,261.9,520.76,262.66,518.94,260.38z"/><linearGradient id="L" x1="524.525" x2="534.334" y1="93.552" y2="93.552" gradientTransform="scale(-1 1) rotate(24.512 -342.035 -2245.572)" gradientUnits="userSpaceOnUse"><stop offset="0" stop-color="#7633ff"/><stop offset=".159" stop-color="#7137ff"/><stop offset=".353" stop-color="#6243ff"/><stop offset=".568" stop-color="#4957ff"/><stop offset=".794" stop-color="#2672ff"/><stop offset="1" stop-color="#0090ff"/></linearGradient><path fill="url(#L)" d="M515.93,247.91c0,0-1.31-1.33,0.31-4.19c1.06-2.14,4.35-5.76,4.86-2.99
				c1.53,0.03,3.28-0.37,2.55,2.73c1.39,0.81,0.15,2.28-1.26,3.71C520.98,248.61,517.31,249.1,515.93,247.91z"/><path d="M495.25,259.61c0,0-0.06,0.11-0.17,0.32c-1.89,3.63-18.71,36.65-11.96,46.89
				c-0.67-5.21,0.15-11.73,4.77-24.88c4.62-13.15,8.82-21.4,8.82-21.4l-1.53-0.82"/></g><linearGradient id="M" x1="416.509" x2="416.509" y1="615.104" y2="547.468" gradientUnits="userSpaceOnUse"><stop offset="0" stop-color="#70b"/><stop offset=".118" stop-color="#6300b3"/><stop offset=".393" stop-color="#3800a2"/><stop offset=".641" stop-color="#190095"/><stop offset=".852" stop-color="#07008e"/><stop offset="1" stop-color="#00008b"/><stop offset="1"/></linearGradient><ellipse cx="416.51" cy="572.58" fill="url(#M)" rx="293.43" ry="23.11"/><g><linearGradient id="N" x1="384.715" x2="387.142" y1="549.952" y2="566.945" gradientUnits="userSpaceOnUse"><stop offset="0" stop-color="#270036"/><stop offset=".594" stop-color="#4f008b"/><stop offset="1" stop-color="#4c24b1"/></linearGradient><path fill="url(#N)" d="M303.08,568.53l3.63-12.14c0,0,0.84-3.77,8.23-3.77s144.38,0,144.38,0s6.84-0.3,8.79,4.74
		c2.6,6.71,3.35,10.04,3.35,10.04s2.37,5.16-6.42,5.16c-8.79,0-158.05,0-158.05,0S303.08,572.86,303.08,568.53z"/><path d="M306.98,572.58c0,0,149.26,0,158.05,0c6.15,0,6.83-2.53,6.69-4.05H303.08C303.08,572.86,306.98,572.58,306.98,572.58z"/><linearGradient id="O" x1="386.588" x2="386.588" y1="529.966" y2="300.558" gradientUnits="userSpaceOnUse"><stop offset="0" stop-color="#270036"/><stop offset=".594" stop-color="#4f008b"/><stop offset="1" stop-color="#4c24b1"/></linearGradient><path fill="url(#O)" d="M561.24,517.06c0,9.24-7.5,16.74-16.74,16.74H228.68c-9.24,0-16.74-7.5-16.74-16.74V316.93
		c0-9.24,7.5-16.74,16.74-16.74H544.5c9.25,0,16.74,7.49,16.74,16.74V517.06z"/><linearGradient id="P" x1="387.518" x2="387.518" y1="504.478" y2="312.934" gradientUnits="userSpaceOnUse"><stop offset="0" stop-color="#7633ff"/><stop offset=".216" stop-color="#4e53ff"/><stop offset=".436" stop-color="#2c6dff"/><stop offset=".646" stop-color="#1480ff"/><stop offset=".839" stop-color="#058cff"/><stop offset="1" stop-color="#0090ff"/></linearGradient><rect width="316.94" height="180.42" x="229.05" y="316.56" fill="url(#P)"/><linearGradient id="Q" x1="321.464" x2="555.006" y1="391.627" y2="187.309" gradientUnits="userSpaceOnUse"><stop offset="0" stop-color="#a1baff"/><stop offset=".015" stop-color="#a7bfff"/><stop offset=".09" stop-color="#c3d3ff"/><stop offset=".175" stop-color="#d9e3ff"/><stop offset=".274" stop-color="#eaf0ff"/><stop offset=".396" stop-color="#f6f8ff"/><stop offset=".563" stop-color="#fdfeff"/><stop offset="1" stop-color="#fff"/></linearGradient><rect width="316.94" height="34.57" x="229.05" y="316.56" fill="url(#Q)"/><linearGradient id="R" x1="334.762" x2="470.084" y1="362.37" y2="243.982" gradientUnits="userSpaceOnUse"><stop offset="0" stop-color="#7633ff"/><stop offset=".216" stop-color="#4e53ff"/><stop offset=".436" stop-color="#2c6dff"/><stop offset=".646" stop-color="#1480ff"/><stop offset=".839" stop-color="#058cff"/><stop offset="1" stop-color="#0090ff"/></linearGradient><path fill="url(#R)" d="M472.63,328.89c0,1.66-1.34,3-3,3h-193.2c-1.66,0-3-1.34-3-3l0,0c0-1.66,1.34-3,3-3h193.2
		C471.29,325.89,472.63,327.23,472.63,328.89L472.63,328.89z" opacity=".5"/><linearGradient id="S" x1="309.337" x2="390.331" y1="361.822" y2="290.963" gradientUnits="userSpaceOnUse"><stop offset="0" stop-color="#7633ff"/><stop offset=".216" stop-color="#4e53ff"/><stop offset=".436" stop-color="#2c6dff"/><stop offset=".646" stop-color="#1480ff"/><stop offset=".839" stop-color="#058cff"/><stop offset="1" stop-color="#0090ff"/></linearGradient><path fill="url(#S)" d="M391.05,341.78c0,1.66-0.79,3-1.77,3H275.21c-0.98,0-1.77-1.34-1.77-3l0,0c0-1.66,0.79-3,1.77-3h114.07
		C390.26,338.78,391.05,340.12,391.05,341.78L391.05,341.78z" opacity=".5"/><linearGradient id="T" x1="243.032" x2="265.994" y1="339.52" y2="319.432" gradientUnits="userSpaceOnUse"><stop offset="0" stop-color="#7633ff"/><stop offset=".216" stop-color="#4e53ff"/><stop offset=".436" stop-color="#2c6dff"/><stop offset=".646" stop-color="#1480ff"/><stop offset=".839" stop-color="#058cff"/><stop offset="1" stop-color="#0090ff"/></linearGradient><circle cx="249.53" cy="333.84" r="12.85" fill="url(#T)"/><circle cx="249.1" cy="328.49" r="6.07" fill="#fff"/><path fill="#fff" d="M259.25,342.22c-1.8-3.81-5.66-6.45-10.15-6.45c-4.23,0-7.91,2.34-9.82,5.79c2.34,3.11,6.06,5.12,10.25,5.12
			C253.42,346.68,256.89,344.95,259.25,342.22z"/><path d="M408.92,374.16c0,8.26-8.24,14.96-18.41,14.96c-10.17,0-18.41-6.7-18.41-14.96c0-8.26,8.24-14.96,18.41-14.96
			C400.67,359.21,408.92,365.9,408.92,374.16z"/><path fill="#431ca3" d="M332.3,497.62c0,0,2.17-27.62,22.74-34.93c20.58-7.31,57.67-6.5,72.02,0c14.35,6.5,20.58,15.43,22.47,23.83
			c1.9,8.39,1.63,11.1,1.63,11.1H332.3z"/><linearGradient id="U" x1="373.383" x2="411.76" y1="471.512" y2="471.512" gradientUnits="userSpaceOnUse"><stop offset="0" stop-color="#a1baff"/><stop offset=".015" stop-color="#a7bfff"/><stop offset=".09" stop-color="#c3d3ff"/><stop offset=".175" stop-color="#d9e3ff"/><stop offset=".274" stop-color="#eaf0ff"/><stop offset=".396" stop-color="#f6f8ff"/><stop offset=".563" stop-color="#fdfeff"/><stop offset="1" stop-color="#fff"/></linearGradient><path fill="url(#U)" d="M392.57,485.51c10.6,0,19.19-8.55,19.19-19.09c0-2.8-0.61-5.45-1.7-7.85c-10.54-1.33-23.26-1.44-34.92-0.14
			c-1.13,2.43-1.76,5.13-1.76,7.98C373.38,476.96,381.97,485.51,392.57,485.51z"/><linearGradient id="V" x1="375.142" x2="410.063" y1="451.564" y2="451.564" gradientUnits="userSpaceOnUse"><stop offset="0" stop-color="#a1baff"/><stop offset=".015" stop-color="#a7bfff"/><stop offset=".09" stop-color="#c3d3ff"/><stop offset=".175" stop-color="#d9e3ff"/><stop offset=".274" stop-color="#eaf0ff"/><stop offset=".396" stop-color="#f6f8ff"/><stop offset=".563" stop-color="#fdfeff"/><stop offset="1" stop-color="#fff"/></linearGradient><path fill="url(#V)" d="M375.14,458.44c0,0,5.45-3.32,5.45-10.2s23.87-2.02,23.87-2.02s2.37,9.93,5.61,12.35"/><linearGradient id="W" x1="362.184" x2="421.61" y1="428.989" y2="428.989" gradientUnits="userSpaceOnUse"><stop offset="0" stop-color="#a1baff"/><stop offset=".015" stop-color="#a7bfff"/><stop offset=".09" stop-color="#c3d3ff"/><stop offset=".175" stop-color="#d9e3ff"/><stop offset=".274" stop-color="#eaf0ff"/><stop offset=".396" stop-color="#f6f8ff"/><stop offset=".563" stop-color="#fdfeff"/><stop offset="1" stop-color="#fff"/></linearGradient><path fill="url(#W)" d="M370.74,444.56c-3.93-7.17-3.25-9.34-3.25-9.34s-5.01-3.38-5.28-9.07c-0.27-5.69,1.35-6.23,1.35-6.23h4.6
			c0,0,0.27-8.51,5.21-14.41c4.94-5.9,6.16-7.11,6.16-7.11s8.53,5.02,16.65,7.11c8.12,2.09,15.7,5.75,17.73,9.94
			c2.03,4.2,2.03,4.2,2.03,4.2s4.74-1.76,5.41,1.35c0.68,3.11-0.14,9.48-1.9,10.83c-1.76,1.35-3.38,1.08-3.38,1.08
			s-1.76,10.02-7.04,15.97c-5.28,5.96-11.2,10.69-16.48,10.69C385.25,459.58,374.67,451.73,370.74,444.56z"/><path d="M367.49,428.99c0,0-7.31-10.69-7.85-20.58c-0.54-9.88,1.62-20.03,6.5-24.37c4.87-4.33,11.78-3.79,11.78-3.79
			s5.14-5.55,19.76-3.65c14.62,1.9,19.49,10.15,23.01,18.14c3.52,7.99,0.29,17.81-0.68,21.12c-0.96,3.31-3.66,10.42-3.66,10.42
			s-0.2-7.94-3.28-12.16c-3.08-4.22-11.46-6.99-16.21-8.43c-4.75-1.44-12.02-4.39-14.68-5.84c-2.65-1.45-2.65-1.45-2.65-1.45
			s-7.98,7.85-9.41,12.7C368.7,415.94,367.49,428.99,367.49,428.99z"/><path fill="none" stroke="#231f20" stroke-linecap="round" stroke-linejoin="round" stroke-miterlimit="10" stroke-width="3.678" d="M382.12,508.88c0-2.47,2-4.46,4.46-4.46s4.46,2,4.46,4.46s-2,4.46-4.46,4.46S382.12,511.34,382.12,508.88z"/><linearGradient id="X" x1="212.006" x2="561.17" y1="526.174" y2="526.174" gradientUnits="userSpaceOnUse"><stop offset="0" stop-color="#a1baff"/><stop offset="1" stop-color="#fff"/></linearGradient><path fill="url(#X)" d="M212.01,518.55c0.75,8.55,7.93,15.25,16.67,15.25H544.5c8.74,0,15.92-6.7,16.67-15.25H212.01z"/><linearGradient id="Y" x1="371.988" x2="402.677" y1="546.494" y2="546.494" gradientUnits="userSpaceOnUse"><stop offset="0" stop-color="#270036"/><stop offset=".594" stop-color="#4f008b"/><stop offset="1" stop-color="#4c24b1"/></linearGradient><rect width="30.69" height="25.39" x="371.99" y="533.8" fill="url(#Y)"/></g><g><linearGradient id="Z" x1="385.285" x2="428.31" y1="248.628" y2="248.628" gradientUnits="userSpaceOnUse"><stop offset="0" stop-color="#7633ff"/><stop offset=".159" stop-color="#7137ff"/><stop offset=".353" stop-color="#6243ff"/><stop offset=".568" stop-color="#4957ff"/><stop offset=".794" stop-color="#2672ff"/><stop offset="1" stop-color="#0090ff"/></linearGradient><path fill="url(#Z)" d="M411.84,215.36c0,0,4.55,3.72,5.92,4.32c1.37,0.61,6.52,1.37,7.21,2.5c0.68,1.14,0.3,9.71,1.29,13.35
		c0.99,3.64,2.88,11,1.67,14.11c-1.21,3.11-3.34,4.93-3.34,5.99c0,1.06-0.68,12.59-0.68,12.59s-15.78,4.1-24.65,8.19
		s-13.96,8.27-13.96,8.27s2.96-6.9,4.48-12.29c1.52-5.39,3.87-14.72,3.79-17.75c-0.08-3.03-7.13-37.02-7.13-37.02
		s2.43,0.38,3.64,0.15c1.21-0.23,6.6-2.2,8.42-3.26c1.82-1.06,2.43-1.97,2.43-1.97L411.84,215.36z"/><path fill="#fff" d="M467.67,237.29"/><linearGradient id="aa" x1="425.186" x2="467.669" y1="253.454" y2="253.454" gradientUnits="userSpaceOnUse"><stop offset="0" stop-color="#a1baff"/><stop offset=".015" stop-color="#a7bfff"/><stop offset=".09" stop-color="#c3d3ff"/><stop offset=".175" stop-color="#d9e3ff"/><stop offset=".274" stop-color="#eaf0ff"/><stop offset=".396" stop-color="#f6f8ff"/><stop offset=".563" stop-color="#fdfeff"/><stop offset="1" stop-color="#fff"/></linearGradient><path fill="url(#aa)" d="M433.38,239.26c0,0,34.59-2.73,34.29-1.97c-0.3,0.76-7.43,28.37-7.43,28.37l-35.05,4.1L433.38,239.26z"/><polygon points="467.67 237.29 466.53 236.38 432.17 238.12 423.9 269.22 425.19 269.75 433.38 239.26"/><polygon points="424.12 267.86 411.76 267.18 411.76 268.92 423.9 269.22"/><linearGradient id="ab" x1="411.759" x2="424.63" y1="266.91" y2="266.91" gradientUnits="userSpaceOnUse"><stop offset="0" stop-color="#a1baff"/><stop offset=".015" stop-color="#a7bfff"/><stop offset=".09" stop-color="#c3d3ff"/><stop offset=".175" stop-color="#d9e3ff"/><stop offset=".274" stop-color="#eaf0ff"/><stop offset=".396" stop-color="#f6f8ff"/><stop offset=".563" stop-color="#fdfeff"/><stop offset="1" stop-color="#fff"/></linearGradient><polygon fill="url(#ab)" points="411.76 267.18 424.63 265.96 424.12 267.86"/><linearGradient id="ac" x1="419.713" x2="426.349" y1="262.491" y2="262.491" gradientUnits="userSpaceOnUse"><stop offset="0" stop-color="#a1baff"/><stop offset=".015" stop-color="#a7bfff"/><stop offset=".09" stop-color="#c3d3ff"/><stop offset=".175" stop-color="#d9e3ff"/><stop offset=".274" stop-color="#eaf0ff"/><stop offset=".396" stop-color="#f6f8ff"/><stop offset=".563" stop-color="#fdfeff"/><stop offset="1" stop-color="#fff"/></linearGradient><path fill="url(#ac)" d="M426.35,259.18c0,0-1.67-0.25-3.89,0c-2.22,0.25-2.22,0.25-2.22,0.25s-0.61,2.43-0.51,4.05
		c0.1,1.62,0.05,2.43,0.05,2.43l4.8-0.3L426.35,259.18z"/><linearGradient id="ad" x1="391.659" x2="419.233" y1="223.335" y2="223.335" gradientUnits="userSpaceOnUse"><stop offset="0" stop-color="#a1baff"/><stop offset=".015" stop-color="#a7bfff"/><stop offset=".09" stop-color="#c3d3ff"/><stop offset=".175" stop-color="#d9e3ff"/><stop offset=".274" stop-color="#eaf0ff"/><stop offset=".396" stop-color="#f6f8ff"/><stop offset=".563" stop-color="#fdfeff"/><stop offset="1" stop-color="#fff"/></linearGradient><path fill="url(#ad)" d="M391.66,217.33c2.11-0.7,5.46-2,6.82-2.8c1.82-1.06,2.43-1.97,2.43-1.97l10.92,2.81c0,0,4.55,3.72,5.92,4.32
		c0.32,0.14,0.85,0.29,1.48,0.45c-0.02,0.05-0.04,0.08-0.04,0.08s-0.61,5.99-2.12,9.56c-1.52,3.57-3.72,4.02-6.14,4.32
		s-8.95-5.31-12.59-9.25C395.72,222.01,392.99,218.87,391.66,217.33z"/><path d="M403.49,182.75c0,0-6.22-0.99-7.51,2.2c-1.29,3.19-0.76,13.96-1.97,17.45c-1.21,3.49-1.52,5.61-1.74,7.66
		c-0.23,2.05-0.38,2.43-1.37,3.72c-0.99,1.29-1.67,3.79-1.67,3.79s1.21,0.38,4.85-1.06c3.64-1.44,6.83-3.94,6.83-3.94L403.49,182.75
		z"/><linearGradient id="ae" x1="395.672" x2="421.09" y1="204.751" y2="204.751" gradientUnits="userSpaceOnUse"><stop offset="0" stop-color="#a1baff"/><stop offset=".015" stop-color="#a7bfff"/><stop offset=".09" stop-color="#c3d3ff"/><stop offset=".175" stop-color="#d9e3ff"/><stop offset=".274" stop-color="#eaf0ff"/><stop offset=".396" stop-color="#f6f8ff"/><stop offset=".563" stop-color="#fdfeff"/><stop offset="1" stop-color="#fff"/></linearGradient><path fill="url(#ae)" d="M421.09,194.12c0,0-0.91,5.16-1.82,7.28c-0.91,2.12-1.29,3.19-1.29,3.19s-0.83,5.92-4.32,9.94
		c-3.49,4.02-5.54,3.79-7.59,3.11c-2.05-0.68-5.99-4.55-6.45-8.65c-0.46-4.1-0.46-4.48-0.46-4.48s-2.81-0.23-3.34-3.19
		s0.3-5.92,2.2-5.23c1.9,0.68,2.12,5.54,2.12,5.54s3.41-7.13,5.01-8.5c1.59-1.37,6.6-2.12,9.1-1.37
		C416.77,192.53,421.09,194.12,421.09,194.12z"/><path d="M421.09,194.12c0,0,0.99-3.34-2.28-7.89c-3.26-4.55-9.63-6.75-14.56-3.87s-6.9,7.51-7.28,9.79
		c-0.38,2.28-0.53,4.17-0.53,4.17s1.21-0.91,2.28,0.46c1.06,1.37,1.44,4.85,1.44,4.85s1.21-0.38,2.05-2.58
		c0.83-2.2,2.81-5.92,4.48-6.6s4.7-1.14,6.45-0.76S421.09,194.12,421.09,194.12z"/><linearGradient id="af" x1="424.959" x2="434.492" y1="237.813" y2="237.813" gradientUnits="userSpaceOnUse"><stop offset="0" stop-color="#7633ff"/><stop offset=".159" stop-color="#7137ff"/><stop offset=".353" stop-color="#6243ff"/><stop offset=".568" stop-color="#4957ff"/><stop offset=".794" stop-color="#2672ff"/><stop offset="1" stop-color="#0090ff"/></linearGradient><path fill="url(#af)" d="M424.96,222.19c0,0,3.87-1.39,5.59,2.55c1.72,3.94,3.94,13.25,3.94,13.25l-2.33,0.13l-4.35,15.55l-0.91-2.12
		c0,0,1.82-1.31,1.31-5.77c-0.51-4.45-2.33-11.02-2.53-13.45C425.49,229.9,424.96,222.19,424.96,222.19z"/><linearGradient id="ag" x1="385.172" x2="457.754" y1="293.17" y2="293.17" gradientUnits="userSpaceOnUse"><stop offset="0" stop-color="#270036"/><stop offset=".594" stop-color="#4f008b"/><stop offset="1" stop-color="#4c24b1"/></linearGradient><path fill="url(#ag)" d="M385.28,284.7c0,0,10.67-7.66,18.66-10.39c7.99-2.73,16.59-5.06,16.59-5.06l3.36-0.03l1.69,0.63l16.49-2.12
		c0,0,4.85,5.66,8.19,16.89c3.34,11.23,4.15,19.92,4.96,22.86c0.81,2.93,2.53,6.17,2.53,6.17s-2.63,2.33-5.36,3.64
		c-2.73,1.32-2.73,1.32-2.73,1.32s-7.38-13.35-9-19.02c-1.62-5.66-1.62-5.66-1.62-5.66s-1.92-11.43-7.79-12.54
		c-5.87-1.11-8.09,5.97-9.91,10.11c-1.82,4.15-6.37,9.71-9.71,10.32s-17.09,0.2-20.03-1.01
		C388.67,299.59,384.43,293.47,385.28,284.7z"/><linearGradient id="ah" x1="413.15" x2="439.917" y1="311.013" y2="311.013" gradientUnits="userSpaceOnUse"><stop offset="0" stop-color="#311842"/><stop offset=".461" stop-color="#190c4b"/><stop offset="1" stop-color="#000054"/></linearGradient><path fill="url(#ah)" d="M413.17,301.24c3.08-1.64,6.62-6.2,8.17-9.74c1.82-4.15,4.05-11.23,9.91-10.11
		c5.87,1.11,7.79,12.54,7.79,12.54s0,0.01,0.31,1.1c-0.01,0.13-0.01,0.21-0.01,0.21s1.21,10.11,0.1,17.8
		c-1.11,7.69-4.48,27.71-4.48,27.71s-8.37-0.3-8.37-0.61s-0.71-11.83-1.42-17.19c-0.71-5.36-1.42-12.14-1.42-16.49
		s0.1-5.66,0.1-5.66l-10.72,0.61C413.15,301.41,413.16,301.35,413.17,301.24z"/><path d="M434.59,340.76c0,0-0.3,4.55-0.3,6.75s0.46,8.57-0.99,12.82c-1.44,4.25-2.96,7.36-6.75,7.74c-3.79,0.38-5.23-1.74-5.39-4.7
		c-0.15-2.96,0.38-6.45,1.9-11.53c1.52-5.08,3.49-7.59,3.49-7.59l0.53-3.94L434.59,340.76z"/><path fill="#fff" d="M424.59,347.73c1.06-2.33,1.96-3.48,1.96-3.48l0.53-3.94l7.51,0.46c0,0-0.3,4.55-0.3,6.75
		c0,0.73,0.05,1.92,0.06,3.34c-0.91-0.29-1.95-0.64-2.11-0.76c-0.3-0.23-1.67-2.58-3.49-2.12c-1.82,0.46-2.66,0.91-2.66,0.91
		L424.59,347.73z"/><path d="M457.5,314.06l3.11,4.1c0,0,0.76,0,1.97,0.3c1.21,0.3,9.63,1.97,11.53,1.59s5.46-0.61,6.6,0.3
		c1.14,0.91,1.44,2.81,1.44,2.81s-4.02,4.17-8.04,5.54s-12.52,3.79-14.49,4.63c-1.97,0.83-6.52,1.29-6.52,1.29s-1.82-5.39-2.2-7.28
		c-0.38-1.9,0.23-4.93,0.23-4.93l-1.37-4.02C449.76,318.38,455.38,316.33,457.5,314.06z"/><path fill="#fff" d="M460.61,318.15c0,0-0.46,3.79-1.06,4.48c-0.61,0.68-3.49,2.5-4.17,2.2c-0.68-0.3-1.82-2.35-2.43-2.43
		c-0.61-0.08-1.82,0-1.82,0l-1.47-3.79c0,0,3.14-1.52,4.96-2.58s2.88-1.97,2.88-1.97L460.61,318.15z"/><linearGradient id="ai" x1="365.774" x2="405.667" y1="241.836" y2="241.836" gradientUnits="userSpaceOnUse"><stop offset="0" stop-color="#7633ff"/><stop offset=".159" stop-color="#7137ff"/><stop offset=".353" stop-color="#6243ff"/><stop offset=".568" stop-color="#4957ff"/><stop offset=".794" stop-color="#2672ff"/><stop offset="1" stop-color="#0090ff"/></linearGradient><path fill="url(#ai)" d="M420.23,259.44c0,0-16.06-1.59-19.7-3.03c-3.64-1.44-5.54-4.32-5.77-5.99c-0.23-1.67-1.29-20.71-2.2-24.65
		s-3.57-8.04-6.9-8.04c-3.34,0-5.08,4.63-5.31,11.76c-0.23,7.13,1.97,22.45,4.02,26.85c2.05,4.4,4.89,6.21,8.65,7.74
		c5.77,2.35,26.75,1.85,26.75,1.85S419.83,262.32,420.23,259.44z"/></g><g><linearGradient id="aj" x1="626.692" x2="513.821" y1="449.54" y2="447.72" gradientUnits="userSpaceOnUse"><stop offset="0" stop-color="#7633ff"/><stop offset=".1" stop-color="#624bff"/><stop offset=".303" stop-color="#3f76ff"/><stop offset=".5" stop-color="#2498ff"/><stop offset=".686" stop-color="#10b0ff"/><stop offset=".857" stop-color="#04bfff"/><stop offset="1" stop-color="#00c4ff"/></linearGradient><path fill="url(#aj)" d="M540.07,398.31c0,0-6.68,4.02-7.81,6.9c-1.14,2.88-4.7,14.11-6.37,20.18c-1.67,6.07-4.93,15.7-4.1,18.05
		c0.83,2.35,9.1,8.65,9.1,8.65s1.21-1.67,2.35-3.64s2.05-2.88,2.05-2.88l-5.16-5.01l8.42-18.05c0,0,2.73,6.37,3.26,9.41
		s0.08,9.25-1.14,12.29c-1.21,3.03-5.61,12.9-6.75,17.83s1.97,37.63,1.97,37.63s6.98,2.5,21.62,2.05
		c14.64-0.46,22.61-2.88,22.61-2.88s-5.84-29.74-7.21-40.28c-1.37-10.54-1.97-19.8-1.97-23.59s0.53-5.31,0.53-5.31
		s0.91-1.59,1.37-2.73c0.46-1.14,0.46-1.14,0.46-1.14s5.69,10.32,8.12,11.45c2.43,1.14,5.61,0.15,7.51-2.58
		c1.9-2.73,8.42-13.05,8.42-13.05l-5.92-5.92l-6.83,8.65c0,0-8.19-22.38-9.71-24.81c-1.52-2.43-3.34-3.72-6.14-4.17
		c-2.81-0.46-3.94,0.08-3.94,0.08L540.07,398.31z"/><path fill="#881fa4" d="M545.38,409.23c0,0,1.9,12.21,2.66,23.9c0.76,11.68,0,21.7,0,21.7l-10.32-3.03l-0.61-26.25l-3.03,6.37
		l-0.41,11.88l1.57,1.47l-1.82,2.68l-0.1,5.97c0,0-2.88,2.12-4.4,6.68s-1.82,8.8-1.82,8.8l0.91,0.61c0,0-1.21,6.98-0.46,9.25
		c0.76,2.28,4.1,6.83,8.95,7.89s11.99,0.91,14.26-0.15s3.19-3.64,3.19-6.22c0-2.58-0.46-20.03-2.43-36.72
		c-1.97-16.69-3.34-31.86-3.34-31.86L545.38,409.23z"/><linearGradient id="ak" x1="548.915" x2="571.62" y1="384.932" y2="384.932" gradientUnits="userSpaceOnUse"><stop offset="0" stop-color="#a1baff"/><stop offset=".015" stop-color="#a7bfff"/><stop offset=".09" stop-color="#c3d3ff"/><stop offset=".175" stop-color="#d9e3ff"/><stop offset=".274" stop-color="#eaf0ff"/><stop offset=".396" stop-color="#f6f8ff"/><stop offset=".563" stop-color="#fdfeff"/><stop offset="1" stop-color="#fff"/></linearGradient><path fill="url(#ak)" d="M553.27,376.08c0,0,1.97-0.76,2.88-2.81c0.91-2.05,2.43-3.11,3.87-3.64c1.44-0.53,4.32-2.05,5.46-4.17
		s1.9-4.02,1.9-4.02s3.26,2.58,3.57,4.85c0.3,2.28-0.08,6.14-0.08,7.13c0,0.99,1.59,4.25,0.15,7.74c-1.44,3.49-5.01,9.25-6.3,9.86
		s-3.03,0-3.03,0l-0.3,3.19l3.41,1.21c0,0,3.11,7.05,3.11,8.95s-1.9,4.93-6.22,3.79c-4.32-1.14-7.05-3.64-8.27-5.01
		s-1.82-2.43-1.82-2.43s1.44-3.79,1.52-6.37c0.08-2.58,0.15-6.07,0.15-7.66s-0.99-5.01-0.99-5.01s-3.72-3.11-3.34-5.54
		S552.36,373.58,553.27,376.08z"/><path d="M575.49,367.74c-1.21-4.93-3.03-7.97-4.78-9.71c-1.74-1.74-8.42-1.82-8.42-1.82s-6.37-1.37-11.3,0.53
		c-4.93,1.9-10.39,8.19-12.14,17.52c-1.74,9.33-0.99,17.37,0.53,22.53s3.79,9.1,5.99,12.44c2.2,3.34,6.75,6.52,6.75,6.3
		c0-0.23-1.21-12.67-0.53-14.79c0,0,1.44-3.79,1.52-6.37c0.08-2.58,0.15-6.07,0.15-7.66s-0.99-5.01-0.99-5.01s-3.72-3.11-3.34-5.54
		s3.41-2.58,4.32-0.08c0,0,1.97-0.76,2.88-2.81c0.91-2.05,2.43-3.11,3.87-3.64c1.44-0.53,4.32-2.05,5.46-4.17s1.9-4.02,1.9-4.02
		s3.26,2.58,3.57,4.85c0.3,2.28-0.08,6.14-0.08,7.13c0,0.99,1.59,4.25,0.15,7.74c-1.44,3.49-5.01,9.25-6.3,9.86s-3.03,0-3.03,0
		l-0.3,3.19l0.57,0.2c0.07-0.03,0.11-0.05,0.11-0.05h2.96c0,0,4.63-2.96,6.45-6.6C573.29,384.12,576.71,372.67,575.49,367.74z"/><path fill="#fff" d="M531.49,451.11c0,0,9.41,6.68,9.94,7.36c0.53,0.68,2.66,5.69,7.59,6.75s5.03,0.53,5.03,0.53
		s2.4-2.73,1.42-3.64c-0.99-0.91-4.32-2.5-5.31-3.64s-2.02-2.93-2.02-2.93v-1.47l-4.27-0.15l-9.18-7.81
		C534.68,446.1,531.95,449.74,531.49,451.11z"/><linearGradient id="al" x1="591.802" x2="612.219" y1="407.329" y2="407.329" gradientUnits="userSpaceOnUse"><stop offset="0" stop-color="#a1baff"/><stop offset=".015" stop-color="#a7bfff"/><stop offset=".09" stop-color="#c3d3ff"/><stop offset=".175" stop-color="#d9e3ff"/><stop offset=".274" stop-color="#eaf0ff"/><stop offset=".396" stop-color="#f6f8ff"/><stop offset=".563" stop-color="#fdfeff"/><stop offset="1" stop-color="#fff"/></linearGradient><path fill="url(#al)" d="M591.8,416.29c0,0,3.57-5.69,3.57-5.99s-1.37-4.48-1.06-6.6c0.3-2.12,0.23-7.81,1.14-7.21
		c0.91,0.61,1.74,2.5,1.74,2.5l0.76,1.21c0,0,13.2-6.52,13.65-6.14c0.46,0.38,0.91,1.06,0.38,1.82s-4.02,2.88-4.02,2.88
		s1.59,0.76,1.21,2.35s-1.21,0.76-1.21,0.99s0.15,2.2-1.21,4.32c-1.37,2.12-5.46,5.69-5.46,5.69l-4.63,8.5L591.8,416.29z"/><path d="M599.69,392.09l-5.46,15.55c0,0-0.08,1.06,1.06,1.21c1.14,0.15,7.05-0.08,7.05-0.08s0.83-0.23,1.14-1.44
		c0.3-1.21,4.25-14.41,4.25-14.41s-0.08-0.68-0.76-0.83S599.69,392.09,599.69,392.09z"/><polygon fill="#fff" points="599.99 393.46 595.75 406.28 602.12 406.2 605.99 393.53"/><path fill="#fff" d="M607.5,398.69c0,0-3.72,1.37-4.55,2.12c-0.83,0.76-0.68,1.44-0.08,1.59c0.61,0.15,5.69-0.46,5.69-0.46
		s0.61-0.38,0.68-1.52S608.26,398.77,607.5,398.69z"/><path fill="#fff" d="M607.66 402.18c0 0-4.25.08-5.08.83-.83.76.23 1.74.83 1.9.61.15 4.32-.3 4.32-.3s1.21-.08 1.29-1.21C609.1 402.25 608.41 402.25 607.66 402.18zM606.97 404.91c0 0-3.31.06-3.97.65-.65.59.18 1.36.65 1.48.47.12 3.37-.24 3.37-.24s.95-.06 1.01-.95C608.1 404.97 607.56 404.97 606.97 404.91z"/><linearGradient id="am" x1="538.727" x2="553.811" y1="541.677" y2="541.677" gradientUnits="userSpaceOnUse"><stop offset="0" stop-color="#a1baff"/><stop offset=".015" stop-color="#a7bfff"/><stop offset=".09" stop-color="#c3d3ff"/><stop offset=".175" stop-color="#d9e3ff"/><stop offset=".274" stop-color="#eaf0ff"/><stop offset=".396" stop-color="#f6f8ff"/><stop offset=".563" stop-color="#fdfeff"/><stop offset="1" stop-color="#fff"/></linearGradient><path fill="url(#am)" d="M538.73,500.39c0,0,1.72,10.82,1.62,13.05c-0.1,2.23-0.4,18.71,0.3,24.68c0.71,5.97,3.54,21.14,3.74,24.48
		s-0.2,9.71-0.61,12.64s-0.81,6.68,0.2,7.38c1.01,0.71,7.59,0.2,7.99-0.4c0.4-0.61-2.12-10.92-2.12-13.35
		c0-2.43,1.52-23.57,1.72-28.83s-0.61-11.23-0.3-16.49c0.3-5.26,0.81-10.11,1.62-15.78s1.11-6.07,0.81-6.07
		C553.39,501.7,543.89,502.11,538.73,500.39z"/><linearGradient id="an" x1="561.282" x2="597.874" y1="539.441" y2="539.441" gradientUnits="userSpaceOnUse"><stop offset="0" stop-color="#a1baff"/><stop offset=".015" stop-color="#a7bfff"/><stop offset=".09" stop-color="#c3d3ff"/><stop offset=".175" stop-color="#d9e3ff"/><stop offset=".274" stop-color="#eaf0ff"/><stop offset=".396" stop-color="#f6f8ff"/><stop offset=".563" stop-color="#fdfeff"/><stop offset="1" stop-color="#fff"/></linearGradient><path fill="url(#an)" d="M561.28,501.6c0,0,3.14,10.92,3.44,15.07c0.3,4.15,0.2,11.02,1.92,16.39c1.72,5.36,8.6,18,10.01,21.34
		c1.42,3.34,2.53,6.17,1.82,7.69c-0.71,1.52-1.31,1.82-1.92,3.44c-0.61,1.62,0.4,3.84,0.4,3.84s6.68,0.91,8.29,3.14
		c1.62,2.23,5.16,6.07,6.78,6.47c1.62,0.4,4.55,0.2,5.36-0.2s0.71-1.72-1.11-2.43s-3.54-1.21-4.75-3.03
		c-1.21-1.82-6.17-10.11-7.08-13.65c-0.91-3.54-7.49-42.48-7.38-45.72c0.1-3.24,0.51-2.93,0.1-7.59s-0.51-6.68-0.51-6.68
		S564.82,501.81,561.28,501.6z"/><linearGradient id="ao" x1="576.585" x2="598.734" y1="574.646" y2="574.646" gradientUnits="userSpaceOnUse"><stop offset="0" stop-color="#270036"/><stop offset=".594" stop-color="#4f008b"/><stop offset="1" stop-color="#4c24b1"/></linearGradient><path fill="url(#ao)" d="M578.75,579.46l1.59,0.08c0,0,0.3-7.36,0.99-7.28c0.68,0.08,3.26,0.38,4.93,2.66s3.57,4.78,5.16,4.93
		c1.59,0.15,6.83,0.08,7.05-0.08c0.23-0.15,0.78-0.91-1.09-0.99c-1.87-0.08-5.82-0.08-5.82-0.08s-3.64-2.81-4.55-4.17
		c-0.91-1.37-1.9-3.03-4.1-3.79c-2.2-0.76-5.97-1.37-5.97-1.37s-0.63,1.37-0.25,1.82c0.38,0.46,1.52,1.14,1.67,2.43
		C578.53,574.91,578.75,579.46,578.75,579.46z"/><linearGradient id="ap" x1="585.253" x2="597.732" y1="574.122" y2="574.122" gradientUnits="userSpaceOnUse"><stop offset="0" stop-color="#270036"/><stop offset=".594" stop-color="#4f008b"/><stop offset="1" stop-color="#4c24b1"/></linearGradient><path fill="url(#ap)" d="M585.51,572.25c0,0,1.06-0.15,2.12-1.06c1.06-0.91,1.37-1.97,1.37-1.97s2.81,5.01,3.94,5.61
		s4.17,1.37,4.63,2.2c0.46,0.83-0.18,1.74-0.18,1.74s-4.53,0.61-5.82-0.08c-1.29-0.68-6.32-6.2-6.32-6.2"/><linearGradient id="aq" x1="543.353" x2="552.086" y1="578.811" y2="578.811" gradientUnits="userSpaceOnUse"><stop offset="0" stop-color="#270036"/><stop offset=".594" stop-color="#4f008b"/><stop offset="1" stop-color="#4c24b1"/></linearGradient><path fill="url(#aq)" d="M543.78,575.24c0,0,3.11,1.57,4.93,0.81c1.82-0.76,2.12-1.44,2.12-1.44s1.06,5.92,1.06,6.6
		s0.99,1.21-1.59,1.59c-2.58,0.38-6.68,0.38-6.9-0.91C543.18,580.6,543.78,575.24,543.78,575.24z"/><linearGradient id="ar" x1="571.378" x2="590.31" y1="419.822" y2="419.822" gradientUnits="userSpaceOnUse"><stop offset="0" stop-color="#7633ff"/><stop offset=".216" stop-color="#4e53ff"/><stop offset=".436" stop-color="#2c6dff"/><stop offset=".646" stop-color="#1480ff"/><stop offset=".839" stop-color="#058cff"/><stop offset="1" stop-color="#0090ff"/></linearGradient><path fill="url(#ar)" d="M573.29,425.77c0,0,2.25-2.05,1.85-6.9c-0.4-4.85-2.43-12.54-3.64-16.59c-1.21-4.05,7.08,27.31,11.53,29.53
		s7.28,0.61,7.28,0.61s-3.03,5.87-7.48,5.26s-9.31-11.13-9.31-11.13"/></g><g><linearGradient id="as" x1="181.621" x2="196.92" y1="436.5" y2="436.5" gradientUnits="userSpaceOnUse"><stop offset="0" stop-color="#a1baff"/><stop offset=".015" stop-color="#a7bfff"/><stop offset=".09" stop-color="#c3d3ff"/><stop offset=".175" stop-color="#d9e3ff"/><stop offset=".274" stop-color="#eaf0ff"/><stop offset=".396" stop-color="#f6f8ff"/><stop offset=".563" stop-color="#fdfeff"/><stop offset="1" stop-color="#fff"/></linearGradient><path fill="url(#as)" d="M189.33,408.2c0,0-2.23,15.37-4.65,30.85s-3.44,20.94-2.93,23.06c0.51,2.12,1.11,2.93,1.11,2.63
		s14.06-51.08,14.06-51.38s-4.65-5.06-4.65-5.06L189.33,408.2z"/><linearGradient id="at" x1="182.153" x2="236.488" y1="429.24" y2="429.24" gradientUnits="userSpaceOnUse"><stop offset="0" stop-color="#7633ff"/><stop offset=".216" stop-color="#4e53ff"/><stop offset=".436" stop-color="#2c6dff"/><stop offset=".646" stop-color="#1480ff"/><stop offset=".839" stop-color="#058cff"/><stop offset="1" stop-color="#0090ff"/></linearGradient><path fill="url(#at)" d="M206.23,389.69c0,0-0.71,3.24,0.91,4.96c1.62,1.72,7.28,1.72,9.41,0.1c2.12-1.62,5.66-5.77,5.66-5.77
		s9.1,0.2,11.02,3.54c1.92,3.34,4.55,12.34,2.53,22.05c-2.02,9.71-6.88,24.88-9.31,32.37s-3.84,12.24-4.25,15.27
		c-0.4,3.03-0.3,6.78-0.3,6.78s-8.5,2.23-23.47-2.63s-16.28-5.66-16.28-5.66s3.24-10.52,5.26-22.55s4.25-29.74,4.25-29.74
		l-3.44-0.61c0,0,5.87-13.55,11.53-16.18C205.42,388.98,206.23,389.69,206.23,389.69z"/><linearGradient id="au" x1="201.265" x2="226.051" y1="379.436" y2="379.436" gradientUnits="userSpaceOnUse"><stop offset="0" stop-color="#a1baff"/><stop offset=".015" stop-color="#a7bfff"/><stop offset=".09" stop-color="#c3d3ff"/><stop offset=".175" stop-color="#d9e3ff"/><stop offset=".274" stop-color="#eaf0ff"/><stop offset=".396" stop-color="#f6f8ff"/><stop offset=".563" stop-color="#fdfeff"/><stop offset="1" stop-color="#fff"/></linearGradient><path fill="url(#au)" d="M221.8,389.08c0,0-0.1-2.53,0.1-5.87c0.2-3.34,0.3-4.15,0.3-4.15s3.94-4.96,3.84-7.28
		c-0.1-2.33-2.23-2.33-3.34-1.11c-1.11,1.21-2.53,2.33-2.53,2.33l-1.62-0.2l-5.77-4.25c0,0,0-5.36-1.21-5.56s-5.06,1.01-6.37,0.51
		c-1.32-0.51-2.23-1.21-2.23-0.81s-1.82,5.87-1.72,7.69s1.52,3.14,1.31,4.15c-0.2,1.01-0.91,4.45-0.61,5.36s2.63,2.02,2.63,2.02
		s0.1,5.66,0.71,6.68c0.61,1.01,0.91,1.11,0.91,1.11s-0.91,3.94,1.62,5.56c1.58,1.01,5,1.75,8.29,0
		C218.11,394.2,219.68,392.08,221.8,389.08z"/><path d="M226.05,371.79c-0.1-2.33-2.23-2.33-3.34-1.11c-1.11,1.21-2.53,2.33-2.53,2.33l-1.62-0.2l-5.77-4.25c0,0,0-5.36-1.21-5.56
		s-5.06,1.01-6.37,0.51c-1.32-0.51-2.23-1.21-2.23-0.81c0,0-0.81-0.3-1.52-1.62c-0.71-1.31-1.11-2.93,0.3-4.55
		c1.42-1.62,11.53-4.15,15.07-3.54c3.54,0.61,8.19,2.53,9.51,6.98s-0.1,12.95-0.1,12.95l-0.42,0.13
		C225.98,372.57,226.07,372.15,226.05,371.79z"/><linearGradient id="av" x1="179.905" x2="258.222" y1="488.638" y2="608.725" gradientUnits="userSpaceOnUse"><stop offset="0" stop-color="#270036"/><stop offset=".594" stop-color="#4f008b"/><stop offset="1" stop-color="#4c24b1"/></linearGradient><path fill="url(#av)" d="M183.52,461.4c0,0-2.28,12.59-6.07,27.01c-3.79,14.41-5.46,22.15-4.25,26.25
		c1.21,4.1,13.96,20.48,15.48,22.91c1.52,2.43,21.54,21.7,21.54,21.7s4.1-6.98,5.77-13.65c1.67-6.68,1.67-6.68,1.67-6.68
		s-25.34-22.91-25.34-23.52s0.61-11.08,0.61-11.08s2.12-29.58,1.82-30.04c-0.3-0.46-8.19-11.83-8.19-11.83L183.52,461.4z"/><path d="M217.65,538.93c0,0,2.73,0.66,2.73,1.47c0,0.81-1.82,9.71-1.72,12.34c0.1,2.63,0.71,8.9-0.81,13.25s-4.35,6.78-5.97,6.17
		c-1.62-0.61-2.33-1.42-1.82-3.14c0.51-1.72,2.53-6.57,2.02-7.99c-0.51-1.42-1.42-2.43-1.42-2.43S216.54,546.97,217.65,538.93z"/><linearGradient id="aw" x1="203.045" x2="187.873" y1="469.651" y2="561.895" gradientUnits="userSpaceOnUse"><stop offset="0" stop-color="#270036"/><stop offset=".594" stop-color="#4f008b"/><stop offset="1" stop-color="#4c24b1"/></linearGradient><path fill="url(#aw)" d="M220.79,469.29c0,0-2.83,9.31-4.65,14.77c-1.82,5.46-3.49,11.48-6.37,33.33
		c-2.88,21.85-8.34,54.01-8.34,54.01s-4.4,0.61-9.56-0.61s-7.59-3.34-7.59-3.34s7.59-42.33,8.5-61.75
		c0.91-19.42,0.61-26.4-0.91-28.83c-1.52-2.43-4.25-6.52-5.01-9.71c-0.76-3.19-0.3-4.7-0.3-4.7S206.93,470.96,220.79,469.29z"/><path d="M200.26,571.65c0,0,0.61,2.43-0.1,2.93c-0.71,0.51-3.44,1.82-4.96,2.83s-4.15,3.64-9.31,4.45s-5.46,0.91-7.08,0.3
		c-1.62-0.61-3.14-1.72-3.14-1.72s0.1-1.82,1.82-3.64c1.72-1.82,6.47-5.06,7.08-6.47c0.61-1.42,1.01-2.12,1.01-2.12
		S190.55,572.05,200.26,571.65z"/><linearGradient id="ax" x1="161.63" x2="232.017" y1="425.05" y2="425.05" gradientUnits="userSpaceOnUse"><stop offset="0" stop-color="#a1baff"/><stop offset=".015" stop-color="#a7bfff"/><stop offset=".09" stop-color="#c3d3ff"/><stop offset=".175" stop-color="#d9e3ff"/><stop offset=".274" stop-color="#eaf0ff"/><stop offset=".396" stop-color="#f6f8ff"/><stop offset=".563" stop-color="#fdfeff"/><stop offset="1" stop-color="#fff"/></linearGradient><path fill="url(#ax)" d="M216.44,409.51c0,0-7.74,17.6-8.95,17.75s-23.67-2.12-26.1-5.61s-3.79-11.53-4.85-12.14
		c-1.06-0.61-1.82-0.46-1.82-0.46s0.05,7.64-0.25,7.94c-0.3,0.3-3.54,0.61-5.06-0.3c-1.52-0.91-4.05-2.43-5.26-2.63
		c-1.21-0.2-3.14,0.61-2.33,1.62c0.81,1.01,2.83,2.83,2.83,2.83s0.1,4.65,3.94,7.18c3.84,2.53,10.72,5.26,10.72,5.26
		s22.05,9.61,26.9,10.01s6.47-0.61,9.31-2.63c2.83-2.02,9.91-11.13,13.15-16.08c3.24-4.96,3.34-6.98,3.34-6.98
		S222.21,414.17,216.44,409.51z"/><path d="M174.47,417c-0.3,0.3-3.54,0.61-5.06-0.3c-1.52-0.91-4.05-2.43-5.26-2.63c0,0-2.73-8.8-2.73-9.71
		c0-0.91,10.92-1.01,11.43-0.71s1.87,5.41,1.87,5.41S174.77,416.7,174.47,417z"/><linearGradient id="ay" x1="215.531" x2="235.557" y1="405.776" y2="405.776" gradientUnits="userSpaceOnUse"><stop offset="0" stop-color="#7633ff"/><stop offset=".216" stop-color="#4e53ff"/><stop offset=".436" stop-color="#2c6dff"/><stop offset=".646" stop-color="#1480ff"/><stop offset=".839" stop-color="#058cff"/><stop offset="1" stop-color="#0090ff"/></linearGradient><path fill="url(#ay)" d="M220.79,396.06l-5.26,13.76c0,0,5.26,2.63,10.52,4.25c5.26,1.62,6.88,1.42,6.88,1.42s2.43-5.06,2.63-14.97"/><linearGradient id="az" x1="188.222" x2="198.538" y1="400.432" y2="400.432" gradientUnits="userSpaceOnUse"><stop offset="0" stop-color="#7633ff"/><stop offset=".216" stop-color="#4e53ff"/><stop offset=".436" stop-color="#2c6dff"/><stop offset=".646" stop-color="#1480ff"/><stop offset=".839" stop-color="#058cff"/><stop offset="1" stop-color="#0090ff"/></linearGradient><path fill="url(#az)" d="M192.27,408.3c0,0,2.83-9.41,4.25-12.04c1.42-2.63,2.02-3.84,2.02-3.84s-4.25,3.84-7.28,9.31
		c-3.03,5.46-3.03,6.07-3.03,6.07S190.85,408.81,192.27,408.3z"/></g><g><linearGradient id="aA" x1="255.798" x2="368.292" y1="294.422" y2="294.422" gradientUnits="userSpaceOnUse"><stop offset="0" stop-color="#311842"/><stop offset=".461" stop-color="#190c4b"/><stop offset="1" stop-color="#000054"/></linearGradient><path fill="url(#aA)" d="M291.38,286.15c0,0-23.39-11.2-27.04-11.3c-3.65-0.1-7.49,2.73-8.33,5.36c-0.84,2.63,0.94,8.18,4.4,12.27
		c3.46,4.09,6.18,5.26,12.82,9.54c6.64,4.28,13.19,10.71,22.74,11.88c9.55,1.17,14.22-0.49,22.93-0.19
		c8.7,0.29,19.56-2.92,23.67-5.94c4.12-3.02,10.2-6.91,13.94-9.15c3.74-2.24,7.3-6.82,9.26-9.83c1.97-3.02,3.18-8.47,2.15-10.32
		c-1.03-1.85-4.12-4.77-7.86-3.7c-3.74,1.07-27.98,11.2-27.98,11.2L291.38,286.15z"/><linearGradient id="aB" x1="312.947" x2="315.678" y1="232.124" y2="285.829" gradientUnits="userSpaceOnUse"><stop offset="0" stop-color="#1dacff"/><stop offset=".136" stop-color="#1ca9fb"/><stop offset=".274" stop-color="#1b9fef"/><stop offset=".414" stop-color="#188eda"/><stop offset=".555" stop-color="#1476bd"/><stop offset=".696" stop-color="#0f5898"/><stop offset=".839" stop-color="#08326b"/><stop offset=".979" stop-color="#010737"/><stop offset="1" stop-color="#00002e"/></linearGradient><path fill="url(#aB)" d="M304.01,228.7c0,0-14.13,3.31-16.38,5.36c-2.25,2.04-6.18,6.04-7.11,11.68c-0.94,5.65-0.47,12.17-0.47,12.17
		s1.31,1.85,7.2,2.73c5.9,0.88,5.15,0.68,5.15,0.68l-1.03,24.83c0,0,1.03,4.09,11.32,5.36c10.29,1.27,19.84,0.39,24.14-1.17
		c4.3-1.56,5.61-4.09,5.61-4.09s0.75-14.31,1.03-18.4c0.28-4.09,0.47-6.13,0.09-6.23c-0.37-0.1,4.49-0.58,9.08-3.41
		c4.59-2.82,5.61-3.7,5.61-3.7s-0.19-16.16-5.43-19.86c-5.24-3.7-16.89-6.72-21.41-7.11C316.92,227.14,304.01,228.7,304.01,228.7z"/><linearGradient id="aC" x1="303.751" x2="321.928" y1="232.13" y2="232.13" gradientUnits="userSpaceOnUse"><stop offset="0" stop-color="#a1baff"/><stop offset=".015" stop-color="#a7bfff"/><stop offset=".09" stop-color="#c3d3ff"/><stop offset=".175" stop-color="#d9e3ff"/><stop offset=".274" stop-color="#eaf0ff"/><stop offset=".396" stop-color="#f6f8ff"/><stop offset=".563" stop-color="#fdfeff"/><stop offset="1" stop-color="#fff"/></linearGradient><path fill="url(#aC)" d="M304.17,227.16l-0.42,5.7c0,0,3.37,4.24,8.35,4.24c4.98,0,9.83-4.82,9.83-4.82l-0.49-4.75"/><linearGradient id="aD" x1="298.404" x2="326.724" y1="216.006" y2="216.006" gradientUnits="userSpaceOnUse"><stop offset="0" stop-color="#a1baff"/><stop offset=".015" stop-color="#a7bfff"/><stop offset=".09" stop-color="#c3d3ff"/><stop offset=".175" stop-color="#d9e3ff"/><stop offset=".274" stop-color="#eaf0ff"/><stop offset=".396" stop-color="#f6f8ff"/><stop offset=".563" stop-color="#fdfeff"/><stop offset="1" stop-color="#fff"/></linearGradient><path fill="url(#aD)" d="M300.24,211.54c0,0-1.68-0.8-1.82,0.88c-0.14,1.68,0.84,6.21,1.68,6.57c0.84,0.37,1.4,0.51,1.4,0.51
		s0.84,4.75,1.33,5.99c0.49,1.24,5.82,5.92,7.3,6.35c1.47,0.44,5.05,0.58,6.95-0.37c1.9-0.95,5.12-4.82,6.11-7.01
		c0.98-2.19,1.05-5.04,1.05-5.04s1.4-0.15,1.82-1.75c0.42-1.61,1.12-6.13,0.21-6.65c-0.91-0.51-0.42-5.33-2.46-6.28
		c-2.04-0.95-19.16-6.06-20.42-4.67c-1.26,1.39-2.18,4.53-2.32,5.48C300.94,206.5,300.24,211.54,300.24,211.54z"/><path d="M302.32,217.3c0,0-0.19-5.94-0.09-6.23c0.09-0.29,1.12-5.06,1.12-5.06s2.62,1.75,10.48,1.95c7.86,0.19,9.17-0.19,9.17-0.19
		v9.74l0.94-0.19c0,0,0.19-5.26,1.12-5.55c0.94-0.29,1.31-0.29,1.31-0.29s0.09-11.98-0.37-13.92c-0.47-1.95-4.21-4.77-7.11-5.36
		c-2.9-0.58-13.94,0.1-17.4,2.92c-3.46,2.82-2.99,3.9-3.09,7.21c-0.09,3.31,0.37,9.15,0.37,9.15s1.59-0.29,1.78,0.39
		c0.19,0.68,0.65,5.16,0.65,5.16L302.32,217.3z"/><linearGradient id="aE" x1="280.209" x2="316.383" y1="270.227" y2="270.227" gradientUnits="userSpaceOnUse"><stop offset="0" stop-color="#a1baff"/><stop offset=".015" stop-color="#a7bfff"/><stop offset=".09" stop-color="#c3d3ff"/><stop offset=".175" stop-color="#d9e3ff"/><stop offset=".274" stop-color="#eaf0ff"/><stop offset=".396" stop-color="#f6f8ff"/><stop offset=".563" stop-color="#fdfeff"/><stop offset="1" stop-color="#fff"/></linearGradient><path fill="url(#aE)" d="M280.24,258.2c-0.2-0.09,0.56,5.92,2.81,14.53c2.25,8.62,3.09,11.03,3.79,11.76c0.7,0.73,4.35,1.1,6.88,0.07
		c2.53-1.02,8-5.55,10.46-9.13c2.46-3.58,4.91-6.72,4.91-6.72l0.14-11.1l7.16-0.51c0,0-1.4-1.53-2.67-1.83
		c-1.26-0.29-6.67,2.63-6.67,2.63l-3.93,8.76l-8.63,3.43l-0.77-8.91C293.72,261.2,287.61,261.49,280.24,258.2z"/><path d="M321.08,277.92c0,0.32-0.25,0.58-0.56,0.58h-10.81c-0.31,0-0.56-0.26-0.56-0.58v-19.94c0-0.32,0.25-0.58,0.56-0.58h10.81
		c0.31,0,0.56,0.26,0.56,0.58V277.92z"/><rect width="1.26" height="1.17" x="310" y="258.71" fill="#fff"/><linearGradient id="aF" x1="298.276" x2="324.384" y1="293.092" y2="293.092" gradientUnits="userSpaceOnUse"><stop offset="0" stop-color="#7633ff"/><stop offset=".129" stop-color="#7231fa"/><stop offset=".287" stop-color="#682deb"/><stop offset=".461" stop-color="#5625d2"/><stop offset=".646" stop-color="#3e1baf"/><stop offset=".837" stop-color="#1f0d83"/><stop offset="1" stop-color="#000057"/></linearGradient><path fill="url(#aF)" d="M298.28,290.92c0,0,2.25,3.14,8.28,4.02c6.04,0.88,14.32-0.15,15.93-1.17c1.61-1.02,1.9-2.78,1.9-2.78
		S312.73,294.06,298.28,290.92z"/><rect width="7.79" height="4.31" x="308.8" y="291.87"/><path d="M305.69,304.74c-0.37,0-17.59,1.46-19.93,2.63c-2.34,1.17-4.12,3.6-1.97,6.43c2.15,2.82,6.46,4.09,11.7,3.21
		c5.24-0.88,16.75-5.06,16.75-5.06l-0.56-1.46L305.69,304.74z"/><linearGradient id="aG" x1="255.798" x2="304.769" y1="294.053" y2="294.053" gradientUnits="userSpaceOnUse"><stop offset="0" stop-color="#7633ff"/><stop offset=".129" stop-color="#7231fa"/><stop offset=".287" stop-color="#682deb"/><stop offset=".461" stop-color="#5625d2"/><stop offset=".646" stop-color="#3e1baf"/><stop offset=".837" stop-color="#1f0d83"/><stop offset="1" stop-color="#000057"/></linearGradient><path fill="url(#aG)" d="M295.03,293.06c-8.33-4.38-31.25-17.82-31.25-17.82s-0.12-0.14-0.34-0.35c-3.36,0.33-6.66,2.9-7.43,5.32
		c-0.84,2.63,0.94,8.18,4.4,12.27c2.89,3.41,5.27,4.8,9.83,7.65c0.69,0.33,1.32,0.61,1.86,0.82c5.71,2.24,26.39,12.27,26.39,12.27
		s1.87-0.97,4.49-4.77c2.62-3.8,1.59-9.64,1.59-9.64S303.35,297.44,295.03,293.06z"/><linearGradient id="aH" x1="303.447" x2="316.36" y1="305.036" y2="305.036" gradientUnits="userSpaceOnUse"><stop offset="0" stop-color="#a1baff"/><stop offset=".015" stop-color="#a7bfff"/><stop offset=".09" stop-color="#c3d3ff"/><stop offset=".175" stop-color="#d9e3ff"/><stop offset=".274" stop-color="#eaf0ff"/><stop offset=".396" stop-color="#f6f8ff"/><stop offset=".563" stop-color="#fdfeff"/><stop offset="1" stop-color="#fff"/></linearGradient><path fill="url(#aH)" d="M304.85,299.68l11.51,5.55c0,0-1.4,0-1.87,1.95c-0.47,1.95,0.09,3.21,0.09,3.21h-2.34l-8.8-2.92
		C303.45,307.47,305.6,302.8,304.85,299.68z"/><path d="M311.68,310.49c0,0,1.22,2.82,2.62,3.31c1.4,0.49,13.01,3.21,18.25,3.12c5.24-0.1,8.14-1.17,8.7-4.87
		c0.56-3.7-2.43-4.58-5.9-5.06c-3.46-0.49-18.99-1.75-18.99-1.75s-1.68,0.58-1.87,1.95c-0.19,1.36-0.28,3.12-0.28,3.12
		L311.68,310.49z"/><linearGradient id="aI" x1="311.681" x2="320.102" y1="302.213" y2="302.213" gradientUnits="userSpaceOnUse"><stop offset="0" stop-color="#a1baff"/><stop offset=".015" stop-color="#a7bfff"/><stop offset=".09" stop-color="#c3d3ff"/><stop offset=".175" stop-color="#d9e3ff"/><stop offset=".274" stop-color="#eaf0ff"/><stop offset=".396" stop-color="#f6f8ff"/><stop offset=".563" stop-color="#fdfeff"/><stop offset="1" stop-color="#fff"/></linearGradient><path fill="url(#aI)" d="M311.68,302.99c0.28-0.19,7.49-4.09,7.49-4.09l0.94,6.62l-3.74-0.29L311.68,302.99z"/><linearGradient id="aJ" x1="319.167" x2="368.292" y1="291.767" y2="291.767" gradientUnits="userSpaceOnUse"><stop offset="0" stop-color="#7633ff"/><stop offset=".129" stop-color="#7231fa"/><stop offset=".287" stop-color="#682deb"/><stop offset=".461" stop-color="#5625d2"/><stop offset=".646" stop-color="#3e1baf"/><stop offset=".837" stop-color="#1f0d83"/><stop offset="1" stop-color="#000057"/></linearGradient><path fill="url(#aJ)" d="M361.05,274.57c-8.86,4.2-41.53,24.15-41.89,24.33l0.94,6.62c0,0,7.58,1.17,12.82,1.36
		c4.46,0.17,6.95,1.67,7.59,2.11c0.79-0.41,1.48-0.83,2.04-1.24c4.12-3.02,10.2-6.91,13.94-9.15c3.74-2.24,7.3-6.82,9.26-9.83
		c1.97-3.02,3.18-8.47,2.15-10.32C366.98,276.77,364.34,274.21,361.05,274.57z"/><linearGradient id="aK" x1="307.426" x2="348.367" y1="270.068" y2="270.068" gradientUnits="userSpaceOnUse"><stop offset="0" stop-color="#a1baff"/><stop offset=".015" stop-color="#a7bfff"/><stop offset=".09" stop-color="#c3d3ff"/><stop offset=".175" stop-color="#d9e3ff"/><stop offset=".274" stop-color="#eaf0ff"/><stop offset=".396" stop-color="#f6f8ff"/><stop offset=".563" stop-color="#fdfeff"/><stop offset="1" stop-color="#fff"/></linearGradient><path fill="url(#aK)" d="M307.89,263.17c-0.35,0.51-0.84,1.24,0,2.26c0.84,1.02,0.77,1.39,0.77,1.39s-1.05,1.02-1.05,2.04
		c0,1.02,0.49,1.9,0.49,1.9s-0.42,1.46-0.21,1.9c0.21,0.44,0.21,0.44,0.21,0.44s-1.19,1.75,1.26,3.14
		c2.46,1.39,10.53,4.31,10.53,4.31s7.3,3.8,14.53,4.75c7.23,0.95,10.74-1.39,11.58-2.92c0.84-1.53,2.11-11.1,2.32-15.99
		c0.21-4.89-0.28-11.76-0.28-11.76s-2.24,2.7-7.79,4.75c-5.54,2.04-5.89,1.83-5.89,2.04c0,0.22,0.21,7.96,0.49,9.49
		c0.28,1.53,0.84,2.85,0.84,2.85s-5.97,0.07-8.28,0.22c-2.32,0.15-3.93-0.07-3.93-0.07s1.47-3.36,0.7-5.33
		c-0.77-1.97-1.47-3.72-1.33-4.75c0.14-1.02,0-1.46-0.35-1.46s-1.54,0.37-1.68,1.39c-0.14,1.02-0.14,5.04-0.14,5.04
		S308.24,262.66,307.89,263.17z"/></g><g><path d="M326.64,563.32c0,0-1.21,1.01-4.45,1.42c-3.24,0.4-3.24,0.4-3.24,0.4s0.71-6.07-0.81-7.49c-1.52-1.42-8.8-4.96-10.72-14.26
		c-1.92-9.3,1.52-19.82,8.9-23.26c7.38-3.44,13.65-3.74,18.51,0.3c4.85,4.05,7.69,10.92,8.09,16.08c0.4,5.16,0.3,8.39,0.3,8.39
		L326.64,563.32z"/><linearGradient id="aL" x1="312.161" x2="335.431" y1="542.662" y2="542.662" gradientUnits="userSpaceOnUse"><stop offset="0" stop-color="#a1baff"/><stop offset=".015" stop-color="#a7bfff"/><stop offset=".09" stop-color="#c3d3ff"/><stop offset=".175" stop-color="#d9e3ff"/><stop offset=".274" stop-color="#eaf0ff"/><stop offset=".396" stop-color="#f6f8ff"/><stop offset=".563" stop-color="#fdfeff"/><stop offset="1" stop-color="#fff"/></linearGradient><path fill="url(#aL)" d="M331.5,556.75c0,0-5.36-4.55-7.08-4.25c-1.72,0.3-4.85,2.43-5.97,1.11c-1.11-1.31-1.72-4.05-2.12-4.25
		c-0.4-0.2-1.21-0.71-1.11-1.31c0.1-0.61,0.81-1.32,0.81-1.32s-1.21,0.71-1.42-0.1c-0.2-0.81-0.2-1.72-0.2-1.72s-2.43,0.3-2.12-1.21
		c0.3-1.52,1.42-4.85,1.01-6.07c-0.4-1.21-2.33-4.75,0-7.69c2.33-2.93,7.28-6.37,11.43-0.91c4.15,5.46,5.06,8.5,7.49,10.22
		c2.43,1.72,3.74,2.93,3.03,4.25c-0.71,1.31-1.82,3.14-1.82,4.25c0,1.11,0.1,3.34,0.1,3.34l-0.3,8.09L331.5,556.75z"/><linearGradient id="aM" x1="322.733" x2="306.22" y1="552.825" y2="583.099" gradientUnits="userSpaceOnUse"><stop offset="0" stop-color="#8990ff"/><stop offset=".011" stop-color="#8d95ff"/><stop offset=".086" stop-color="#a5b0ff"/><stop offset=".172" stop-color="#b9c6ff"/><stop offset=".271" stop-color="#c8d7ff"/><stop offset=".393" stop-color="#d3e3ff"/><stop offset=".561" stop-color="#d9eaff"/><stop offset="1" stop-color="#dbecff"/></linearGradient><path fill="url(#aM)" d="M291.34,572.93c0,0-1.21,2.93,1.82,4.85c3.03,1.92,31.35,5.46,32.67,4.75c1.31-0.71,7.79-12.24,7.79-12.24
		l-0.3-13.35l-1.82-0.2c0,0-3.34,2.93-5.56,7.49c-2.22,4.55-6.17,11.73-6.17,11.73s-11.03-0.71-12.34-2.33
		c-1.31-1.62-3.14-4.75-4.65-4.75c-1.52,0-4.25-0.1-4.25-0.1L291.34,572.93z"/><linearGradient id="aN" x1="333.456" x2="389.149" y1="566.918" y2="566.918" gradientUnits="userSpaceOnUse"><stop offset="0" stop-color="#8815ff"/><stop offset=".01" stop-color="#8917ff"/><stop offset=".233" stop-color="#9e42ff"/><stop offset=".45" stop-color="#af64ff"/><stop offset=".654" stop-color="#ba7cff"/><stop offset=".843" stop-color="#c28bff"/><stop offset="1" stop-color="#c490ff"/></linearGradient><path fill="url(#aN)" d="M338.68,544.21c0,0-4.35,3.14-4.85,6.37c-0.51,3.24-0.4,18.61-0.2,19.72s6.17,19.12,10.42,19.32
		c4.25,0.2,7.48-3.64,13.45-3.14c5.97,0.51,19.93,1.32,24.98,1.52c5.06,0.2,6.57,0.51,6.57,0.51l0.1-22.35c0,0-7.89,1.72-13.45-0.4
		c-5.56-2.12-11.02-7.18-13.96-10.32C358.81,552.3,351.93,545.22,338.68,544.21z"/><linearGradient id="aO" x1="346.857" x2="298.712" y1="552.744" y2="595.225" gradientUnits="userSpaceOnUse"><stop offset="0" stop-color="#a1baff"/><stop offset=".015" stop-color="#a7bfff"/><stop offset=".09" stop-color="#c3d3ff"/><stop offset=".175" stop-color="#d9e3ff"/><stop offset=".274" stop-color="#eaf0ff"/><stop offset=".396" stop-color="#f6f8ff"/><stop offset=".563" stop-color="#fdfeff"/><stop offset="1" stop-color="#fff"/></linearGradient><path fill="url(#aO)" d="M336.1,547.39c0,0-1.06,2.43-1.06,8.34s-0.3,26.85-0.3,26.85s-8.8,0.56-14.16-0.15
		c-5.36-0.71-11.43-2.83-11.43-2.83s-1.62-2.83-3.94-4.55c-2.33-1.72-6.07-6.17-6.47-5.87c-0.4,0.3-0.4,1.01,0.1,3.03
		c0.5,2.02,1.11,3.74,1.11,3.74s-3.64,0.2-4.25-0.81s-3.14-7.69-3.14-7.69s-0.71,1.21-1.01,2.93c-0.3,1.72,0.71,7.38,3.34,9.41
		c2.63,2.02,8.19,3.44,12.84,4.96c4.65,1.52,20.23,4.15,26.5,4.55c6.27,0.4,8.29,0.51,8.9-0.1c0.61-0.61,5.16-19.02,5.36-26.8
		c0.2-7.79-1.01-14.87-5.06-16.28C339.39,544.71,336.86,546.23,336.1,547.39z"/><linearGradient id="aP" x1="288.208" x2="299.132" y1="567.374" y2="567.374" gradientUnits="userSpaceOnUse"><stop offset="0" stop-color="#7633ff"/><stop offset=".216" stop-color="#4e53ff"/><stop offset=".436" stop-color="#2c6dff"/><stop offset=".646" stop-color="#1480ff"/><stop offset=".839" stop-color="#058cff"/><stop offset="1" stop-color="#0090ff"/></linearGradient><path fill="url(#aP)" d="M293.37,569.7c0,0-5.16-7.69-5.16-8.29s5.56,0.4,5.56,0.4l4.96,7.38c0,0-0.3,1.42-0.1,2.23
		c0.2,0.81,0.51,2.12,0.51,2.12l-4.05-0.1L293.37,569.7z"/><linearGradient id="aQ" x1="388.828" x2="439.873" y1="575.404" y2="575.404" gradientUnits="userSpaceOnUse"><stop offset="0" stop-color="#7633ff"/><stop offset=".216" stop-color="#4e53ff"/><stop offset=".436" stop-color="#2c6dff"/><stop offset=".646" stop-color="#1480ff"/><stop offset=".839" stop-color="#058cff"/><stop offset="1" stop-color="#0090ff"/></linearGradient><path fill="url(#aQ)" d="M389.15,566.16c0,0,10.67-5.71,17.04-5.41c6.37,0.3,12.9,6.52,17.9,7.89c5.01,1.37,15.78,3.64,15.78,3.64
		l-0.76,17.6c0,0-29.43,0.46-38.84,0s-11.23-1.37-11.23-1.37S388.49,570.05,389.15,566.16z"/><linearGradient id="aR" x1="439.115" x2="476.041" y1="546.393" y2="546.393" gradientUnits="userSpaceOnUse"><stop offset="0" stop-color="#a1baff"/><stop offset=".015" stop-color="#a7bfff"/><stop offset=".09" stop-color="#c3d3ff"/><stop offset=".175" stop-color="#d9e3ff"/><stop offset=".274" stop-color="#eaf0ff"/><stop offset=".396" stop-color="#f6f8ff"/><stop offset=".563" stop-color="#fdfeff"/><stop offset="1" stop-color="#fff"/></linearGradient><path fill="url(#aR)" d="M439.82,572.83c0,0,4.45,1.11,9.31,2.43c4.85,1.32,5.87,1.11,5.87,1.11s-1.42-11.53-0.71-16.59
		c0.71-5.06,3.34-15.37,3.74-18.61c0.4-3.24,0.4-4.55,0-5.36c-0.4-0.81-1.11-1.32-1.11-1.32s-1.62,0-3.64-1.62
		c-2.02-1.62-4.25-4.75-4.25-4.75s11.63-13.96,17.6-19.52c5.97-5.56,8.39-6.27,9.1-5.36c0.71,0.91,0.2,3.74-1.42,6.68
		c-1.62,2.93-6.17,13.76-6.57,17.6s0.1,24.17,1.01,38.44c0.91,14.26,1.62,20.33,1.01,21.64c-0.61,1.32-3.24,1.92-3.24,1.92
		l-27.41,0.35L439.82,572.83z"/><linearGradient id="aS" x1="449.027" x2="476.041" y1="518.705" y2="518.705" gradientUnits="userSpaceOnUse"><stop offset="0" stop-color="#7633ff"/><stop offset=".216" stop-color="#4e53ff"/><stop offset=".436" stop-color="#2c6dff"/><stop offset=".646" stop-color="#1480ff"/><stop offset=".839" stop-color="#058cff"/><stop offset="1" stop-color="#0090ff"/></linearGradient><path fill="url(#aS)" d="M466.63,508.6c-5.97,5.56-17.6,19.52-17.6,19.52s2.22,3.14,4.25,4.75c2.02,1.62,3.64,1.62,3.64,1.62
		s0.81-7.49,5.06-13.05c3.95-5.17,6.86-8.86,10.74-8.21c0.64-1.43,1.21-2.61,1.6-3.33c1.62-2.93,2.12-5.77,1.42-6.68
		C475.02,502.33,472.59,503.04,466.63,508.6z"/><linearGradient id="aT" x1="457.273" x2="420.255" y1="572.409" y2="530.535" gradientUnits="userSpaceOnUse"><stop offset="0" stop-color="#a1baff"/><stop offset=".015" stop-color="#a7bfff"/><stop offset=".09" stop-color="#c3d3ff"/><stop offset=".175" stop-color="#d9e3ff"/><stop offset=".274" stop-color="#eaf0ff"/><stop offset=".396" stop-color="#f6f8ff"/><stop offset=".563" stop-color="#fdfeff"/><stop offset="1" stop-color="#fff"/></linearGradient><path fill="url(#aT)" d="M449.13,575.26c4.85,1.32,5.87,1.11,5.87,1.11s-0.87-7.13-0.9-12.64c-3.06-3.44-14.11-15.87-19.22-21.24
		c-5.97-6.27-9.61-21.14-9.81-21.44c-0.2-0.3-0.3-1.92-0.51-2.83s-2.73-6.17-4.05-6.88c-1.32-0.71-3.03,4.15-2.83,11.93
		c0.2,7.79,0.71,24.78,0.71,24.78s4.25,0.81,6.07,0.71c1.82-0.1,3.44-1.52,3.44-1.52s1.01,0,1.72,0.71
		c0.71,0.71,3.44,6.07,6.37,11.83c2.34,4.6,5.96,11.38,7.34,13.94C444.95,574.14,447,574.68,449.13,575.26z"/><linearGradient id="aU" x1="417.656" x2="427.888" y1="530.018" y2="530.018" gradientUnits="userSpaceOnUse"><stop offset="0" stop-color="#7633ff"/><stop offset=".216" stop-color="#4e53ff"/><stop offset=".436" stop-color="#2c6dff"/><stop offset=".646" stop-color="#1480ff"/><stop offset=".839" stop-color="#058cff"/><stop offset="1" stop-color="#0090ff"/></linearGradient><path fill="url(#aU)" d="M422.02,526.2c0.3-3.24,2.83-5.77,2.83-5.77c0.01,0,0.02-0.01,0.04-0.01c-0.11-0.64-0.2-1.59-0.34-2.21
		c-0.2-0.91-2.73-6.17-4.05-6.88c-1.32-0.71-3.03,4.15-2.83,11.93c0.2,7.79,0.71,24.78,0.71,24.78s4.25,0.81,6.07,0.71
		c1.82-0.1,3.44-1.52,3.44-1.52C423.13,540.46,421.72,529.44,422.02,526.2z"/></g><linearGradient id="aV" x1="320.396" x2="287.05" y1="541.301" y2="568.061" gradientUnits="userSpaceOnUse"><stop offset=".004" stop-color="#7633ff" stop-opacity="0"/><stop offset=".092" stop-color="#7051ff" stop-opacity=".088"/><stop offset=".263" stop-color="#6685ff" stop-opacity=".26"/><stop offset=".43" stop-color="#5eb1ff" stop-opacity=".428"/><stop offset=".591" stop-color="#57d3ff" stop-opacity=".589"/><stop offset=".743" stop-color="#53ebff" stop-opacity=".742"/><stop offset=".883" stop-color="#50faff" stop-opacity=".883"/><stop offset="1" stop-color="#4fffff"/></linearGradient><polyline fill="url(#aV)" points="308.93 526.15 293.77 561.81 298.15 568.53 331.5 556.75"/><linearGradient id="aW" x1="245.637" x2="142.841" y1="339.877" y2="422.373" gradientUnits="userSpaceOnUse"><stop offset=".004" stop-color="#7633ff" stop-opacity="0"/><stop offset=".092" stop-color="#7051ff" stop-opacity=".088"/><stop offset=".263" stop-color="#6685ff" stop-opacity=".26"/><stop offset=".43" stop-color="#5eb1ff" stop-opacity=".428"/><stop offset=".591" stop-color="#57d3ff" stop-opacity=".589"/><stop offset=".743" stop-color="#53ebff" stop-opacity=".742"/><stop offset=".883" stop-color="#50faff" stop-opacity=".883"/><stop offset="1" stop-color="#4fffff"/></linearGradient><polyline fill="url(#aW)" points="229.05 316.56 161.42 404.36 172.85 403.65 174.72 409.06 229.03 389.84"/><linearGradient id="aX" x1="321.473" x2="310.572" y1="90.47" y2="298.455" gradientUnits="userSpaceOnUse"><stop offset=".004" stop-color="#7633ff" stop-opacity="0"/><stop offset=".092" stop-color="#7051ff" stop-opacity=".088"/><stop offset=".263" stop-color="#6685ff" stop-opacity=".26"/><stop offset=".43" stop-color="#5eb1ff" stop-opacity=".428"/><stop offset=".591" stop-color="#57d3ff" stop-opacity=".589"/><stop offset=".743" stop-color="#53ebff" stop-opacity=".742"/><stop offset=".883" stop-color="#50faff" stop-opacity=".883"/><stop offset="1" stop-color="#4fffff"/></linearGradient><polyline fill="url(#aX)" points="233.69 84.28 309.22 257.62 320.52 257.4 409.47 92.46"/><linearGradient id="aY" x1="407.327" x2="509.092" y1="145.69" y2="219.626" gradientUnits="userSpaceOnUse"><stop offset=".004" stop-color="#7633ff" stop-opacity="0"/><stop offset=".092" stop-color="#7051ff" stop-opacity=".088"/><stop offset=".263" stop-color="#6685ff" stop-opacity=".26"/><stop offset=".43" stop-color="#5eb1ff" stop-opacity=".428"/><stop offset=".591" stop-color="#57d3ff" stop-opacity=".589"/><stop offset=".743" stop-color="#53ebff" stop-opacity=".742"/><stop offset=".883" stop-color="#50faff" stop-opacity=".883"/><stop offset="1" stop-color="#4fffff"/></linearGradient><polyline fill="url(#aY)" points="363.29 203.61 426.35 259.18 432.17 238.12 466.53 236.38 453.92 79.87"/><linearGradient id="aZ" x1="559.847" x2="605.233" y1="382.136" y2="396.012" gradientUnits="userSpaceOnUse"><stop offset=".004" stop-color="#7633ff" stop-opacity="0"/><stop offset=".092" stop-color="#7051ff" stop-opacity=".088"/><stop offset=".263" stop-color="#6685ff" stop-opacity=".26"/><stop offset=".43" stop-color="#5eb1ff" stop-opacity=".428"/><stop offset=".591" stop-color="#57d3ff" stop-opacity=".589"/><stop offset=".743" stop-color="#53ebff" stop-opacity=".742"/><stop offset=".883" stop-color="#50faff" stop-opacity=".883"/><stop offset="1" stop-color="#4fffff"/></linearGradient><polyline fill="url(#aZ)" points="553.42 403.16 595.75 406.28 595.75 406.28 602.12 406.2 605.99 393.53 599.99 393.46 567.38 361.44"/></svg>