<svg xmlns="http://www.w3.org/2000/svg" width="32" height="32" viewBox="0 0 32 32"><g transform="translate(-354.5 -74.5)"><rect width="30.967" height="24.967" x="355.016" y="78.016" fill="none" stroke="#000" stroke-linecap="round" stroke-linejoin="round" stroke-width="1.033"/><path fill="none" stroke="#000" d="m 355.5,82.000079 30.78107,0"/><circle cx="383" cy="80" r=".5"/><circle cx="381" cy="80.02" r=".5"/><circle cx="379" cy="80" r=".5"/><path fill="#4bbfeb" d="m 374.50001,89.5 c 0,2.209 -1.791,4 -4,4 -2.209,0 -4,-1.791 -4,-4 0,-2.209 1.791,-4 4,-4 2.209,0 4,1.791 4,4 z"/><path fill="#f8b84e" d="M368.00001 94.5l5 0c.276 0 .5.224.5.5l0 0c0 .276-.224.5-.5.5l-5 0c-.275 0-.5-.224-.5-.5l0 0c0-.276.224-.5.5-.5zM369.00001 96.5l3 0c.276 0 .5.224.5.5l0 0c0 .276-.224.5-.5.5l-3 0c-.275 0-.5-.224-.5-.5l0 0c0-.276.224-.5.5-.5z"/></g></svg>