<svg xmlns="http://www.w3.org/2000/svg" width="48" height="48" viewBox="0 0 48 48"><path fill-rule="evenodd" d="M 24 0 A 23.999992 23.999992 0 0 0 0 24 A 23.999992 23.999992 0 0 0 24 48 A 23.999992 23.999992 0 0 0 48 24 A 23.999992 23.999992 0 0 0 24 0 z M 10.449219 9.9980469 A 0.50004998 0.50004998 0 0 1 10.5 10.001953 L 37.5 10.001953 A 0.50004998 0.50004998 0 0 1 38 10.501953 L 38 18.314453 L 38 22.876953 L 38 37.501953 A 0.50004998 0.50004998 0 0 1 37.5 38.001953 L 10.5 38.001953 A 0.50004998 0.50004998 0 0 1 10 37.501953 L 10 10.501953 A 0.50004998 0.50004998 0 0 1 10.40625 10.001953 A 0.50004998 0.50004998 0 0 1 10.449219 9.9980469 z M 11 11.001953 L 11 14.001953 L 37 14.001953 L 37 11.001953 L 11 11.001953 z M 12.449219 11.998047 A 0.49999634 0.49999634 0 0 1 12.5 12.001953 A 0.49999634 0.49999634 0 0 1 13 12.501953 A 0.49999634 0.49999634 0 0 1 12.5 13.001953 A 0.49999634 0.49999634 0 0 1 12 12.501953 A 0.49999634 0.49999634 0 0 1 12.40625 12.001953 A 0.49999634 0.49999634 0 0 1 12.449219 11.998047 z M 14.449219 11.998047 A 0.4999976 0.4999976 0 0 1 14.5 12.001953 A 0.4999976 0.4999976 0 0 1 15 12.501953 A 0.4999976 0.4999976 0 0 1 14.5 13.001953 A 0.4999976 0.4999976 0 0 1 14 12.501953 A 0.4999976 0.4999976 0 0 1 14.40625 12.001953 A 0.4999976 0.4999976 0 0 1 14.449219 11.998047 z M 16.449219 11.998047 A 0.50002966 0.50002966 0 0 1 16.5 12.001953 A 0.50002966 0.50002966 0 0 1 17 12.501953 A 0.50002966 0.50002966 0 0 1 16.5 13.001953 A 0.50002966 0.50002966 0 0 1 16 12.501953 A 0.50002966 0.50002966 0 0 1 16.40625 12.001953 A 0.50002966 0.50002966 0 0 1 16.449219 11.998047 z M 11 15.001953 L 11 37.001953 L 37 37.001953 L 37 22.876953 L 37 18.314453 L 37 15.001953 L 11 15.001953 z M 12.900391 16.496094 A 0.50004998 0.50004998 0 0 1 13 16.501953 L 20 16.501953 A 0.50004998 0.50004998 0 0 1 20.5 17.001953 L 20.5 24.001953 A 0.50004998 0.50004998 0 0 1 20 24.501953 L 13 24.501953 A 0.50004998 0.50004998 0 0 1 12.5 24.001953 L 12.5 17.001953 A 0.50004998 0.50004998 0 0 1 12.84375 16.501953 A 0.50004998 0.50004998 0 0 1 12.900391 16.496094 z M 22 16.501953 L 27 16.501953 L 27 17.501953 L 22 17.501953 L 22 16.501953 z M 13.5 17.501953 L 13.5 23.501953 L 19.5 23.501953 L 19.5 17.501953 L 13.5 17.501953 z M 22 18.501953 L 35 18.501953 L 35 19.501953 L 22 19.501953 L 22 18.501953 z M 22 20.501953 L 33 20.501953 L 33 21.501953 L 22 21.501953 L 22 20.501953 z M 22 22.501953 L 33 22.501953 L 33 23.501953 L 22 23.501953 L 22 22.501953 z M 22 24.501953 L 33 24.501953 L 33 25.501953 L 22 25.501953 L 22 24.501953 z M 13 25.501953 L 20 25.501953 L 20 26.501953 L 13 26.501953 L 13 25.501953 z M 22 26.501953 L 26 26.501953 L 26 27.501953 L 22 27.501953 L 22 26.501953 z M 13 27.501953 L 17 27.501953 L 17 28.501953 L 13 28.501953 L 13 27.501953 z M 18.84375 31.501953 L 21.40625 31.501953 C 22.14027 31.501953 22.75 32.079053 22.75 32.814453 L 22.75 33.658203 C 22.75 34.393603 22.14027 35.001953 21.40625 35.001953 L 18.84375 35.001953 C 18.10973 35.001953 17.5 34.393603 17.5 33.658203 L 17.5 32.814453 C 17.5 32.079053 18.10973 31.501953 18.84375 31.501953 z M 25.84375 31.501953 L 28.40625 31.501953 C 29.14027 31.501953 29.75 32.079053 29.75 32.814453 L 29.75 33.658203 C 29.75 34.393603 29.14027 35.001953 28.40625 35.001953 L 25.84375 35.001953 C 25.10973 35.001953 24.5 34.393603 24.5 33.658203 L 24.5 32.814453 C 24.5 32.079053 25.10973 31.501953 25.84375 31.501953 z M 18.84375 32.501953 C 18.63595 32.501953 18.5 32.626653 18.5 32.814453 L 18.5 33.658203 C 18.5 33.846103 18.63595 34.001953 18.84375 34.001953 L 21.40625 34.001953 C 21.61405 34.001953 21.75 33.846103 21.75 33.658203 L 21.75 32.814453 C 21.75 32.626653 21.61405 32.501953 21.40625 32.501953 L 18.84375 32.501953 z M 25.84375 32.501953 C 25.63595 32.501953 25.5 32.626653 25.5 32.814453 L 25.5 33.658203 C 25.5 33.846103 25.63595 34.001953 25.84375 34.001953 L 28.40625 34.001953 C 28.61405 34.001953 28.75 33.846103 28.75 33.658203 L 28.75 32.814453 C 28.75 32.626653 28.61405 32.501953 28.40625 32.501953 L 25.84375 32.501953 z "/></svg>